<svg width="18" height="19" viewBox="0 0 18 19" fill="none" xmlns="http://www.w3.org/2000/svg">
<path fill-rule="evenodd" clip-rule="evenodd" d="M7.18509 9.29577H7.20759C9.32259 9.29577 11.0431 7.57527 11.0431 5.45952C11.0431 3.34452 9.32259 1.62402 7.20759 1.62402C5.09334 1.62402 3.37284 3.34452 3.37284 5.45727C3.36834 6.47952 3.76284 7.44102 4.48284 8.16627C5.20209 8.89002 6.16134 9.29202 7.18509 9.29577ZM4.49784 5.45952C4.49784 3.96477 5.71359 2.74902 7.20759 2.74902C8.70234 2.74902 9.91809 3.96477 9.91809 5.45952C9.91809 6.95427 8.70234 8.17077 7.20759 8.17077H7.18734C6.46584 8.16777 5.78859 7.88502 5.28159 7.37277C4.77309 6.86127 4.49484 6.18252 4.49784 5.45952Z" fill="black"/>
<path fill-rule="evenodd" clip-rule="evenodd" d="M1.53809 14.2821C1.53809 16.9288 5.65709 16.9288 7.20734 16.9288C8.60909 16.9288 12.8766 16.9288 12.8766 14.2671C12.8766 12.2518 10.2808 10.5486 7.20734 10.5486C4.13384 10.5486 1.53809 12.2578 1.53809 14.2821ZM2.66309 14.2821C2.66309 13.0506 4.60634 11.6736 7.20734 11.6736C9.80834 11.6736 11.7516 13.0423 11.7516 14.2671C11.7516 15.5368 9.28034 15.8038 7.20734 15.8038C4.19159 15.8038 2.66309 15.2916 2.66309 14.2821Z" fill="black"/>
<path d="M12.6399 8.39593C12.3909 8.39593 12.1636 8.23018 12.0961 7.97818C12.0166 7.67818 12.1944 7.37068 12.4951 7.28968C13.3254 7.06768 13.9051 6.31243 13.9051 5.45143C13.9059 4.55143 13.2676 3.76693 12.3871 3.58618C12.0826 3.52393 11.8861 3.22618 11.9491 2.92243C12.0106 2.61793 12.3076 2.41843 12.6129 2.48443C14.0146 2.77243 15.0309 4.02043 15.0309 5.45143C15.0309 6.82018 14.1069 8.02393 12.7846 8.37718C12.7366 8.38993 12.6871 8.39593 12.6399 8.39593Z" fill="black"/>
<path d="M14.2449 13.7911C14.3057 14.0498 14.5367 14.2246 14.7917 14.2246C14.8344 14.2246 14.8779 14.2201 14.9214 14.2096C15.8132 13.9996 16.4619 13.2503 16.4619 12.4276C16.4619 11.1323 14.8757 9.95257 13.1342 9.95257C12.8237 9.95257 12.5717 10.2046 12.5717 10.5151C12.5717 10.8256 12.8237 11.0776 13.1342 11.0776C14.3499 11.0776 15.3369 11.8951 15.3369 12.4276C15.3369 12.6878 15.0849 13.0156 14.6634 13.1146C14.3612 13.1851 14.1737 13.4888 14.2449 13.7911Z" fill="black"/>
</svg>
