<svg width="39" height="17" viewBox="0 0 39 17" fill="none" xmlns="http://www.w3.org/2000/svg">
<path fill-rule="evenodd" clip-rule="evenodd" d="M7.2484 2.99354C6.80079 3.53656 6.0846 3.96485 5.36842 3.90367C5.2789 3.16945 5.62953 2.38934 6.03984 1.90751C6.48746 1.34919 7.27078 0.951491 7.9049 0.920898C7.9795 1.68571 7.68855 2.43523 7.2484 2.99354ZM7.89695 4.04877C7.26601 4.01154 6.69031 4.2433 6.22529 4.43049C5.92604 4.55096 5.67263 4.65297 5.47985 4.65297C5.2635 4.65297 4.99963 4.5455 4.70336 4.42484C4.31516 4.26674 3.87133 4.08598 3.40591 4.09466C2.33909 4.10995 1.34689 4.72945 0.802291 5.71606C-0.316741 7.68927 0.511343 10.6109 1.59307 12.217C2.12275 13.0124 2.75687 13.8843 3.59241 13.8537C3.96 13.8394 4.22442 13.7244 4.49807 13.6054C4.81312 13.4683 5.1404 13.3259 5.65143 13.3259C6.14474 13.3259 6.45771 13.4646 6.75814 13.5977C7.0438 13.7243 7.31813 13.8458 7.72537 13.8384C8.59075 13.8231 9.13535 13.043 9.66503 12.2476C10.2366 11.3939 10.4878 10.5607 10.5259 10.4343L10.5304 10.4197C10.5295 10.4187 10.5224 10.4154 10.51 10.4096L10.51 10.4096C10.3189 10.3199 8.85841 9.63442 8.8444 7.79635C8.83034 6.25355 10.0028 5.47187 10.1874 5.34883C10.1986 5.34134 10.2062 5.33629 10.2096 5.33365C9.4636 4.20173 8.29981 4.07936 7.89695 4.04877ZM13.8874 13.7547V1.83128H18.2516C20.5046 1.83128 22.0787 3.42209 22.0787 5.74712C22.0787 8.07215 20.4748 9.67825 18.192 9.67825H15.6928V13.7547H13.8874ZM15.6924 3.39097H17.7738C19.3404 3.39097 20.2356 4.24756 20.2356 5.75424C20.2356 7.26092 19.3404 8.12515 17.7663 8.12515H15.6924V3.39097ZM28.0398 12.3242C27.5624 13.2573 26.5105 13.8462 25.3765 13.8462C23.698 13.8462 22.5267 12.8213 22.5267 11.2764C22.5267 9.74678 23.6607 8.86724 25.757 8.73723L28.01 8.59956V7.94182C28.01 6.97051 27.3908 6.44279 26.2867 6.44279C25.3765 6.44279 24.7126 6.92462 24.5783 7.65884H22.952C23.0042 6.11392 24.4216 4.98965 26.3389 4.98965C28.4054 4.98965 29.7482 6.09863 29.7482 7.81945V13.7544H28.0771V12.3242H28.0398ZM25.8617 12.4312C24.8993 12.4312 24.2876 11.957 24.2876 11.2305C24.2876 10.4809 24.8769 10.045 26.0034 9.97617L28.0102 9.84615V10.5192C28.0102 11.6358 27.0852 12.4312 25.8617 12.4312ZM35.2912 14.2209C34.5675 16.3089 33.7394 16.9972 31.9788 16.9972C31.8445 16.9972 31.3969 16.9819 31.2925 16.9513V15.5211C31.4044 15.5364 31.6804 15.5517 31.8222 15.5517C32.6204 15.5517 33.068 15.2075 33.3441 14.3127L33.5082 13.785L30.4495 5.10436H32.3369L34.4631 12.1483H34.5004L36.6266 5.10436H38.4618L35.2912 14.2209Z" fill="black"/>
</svg>
