<svg width="33" height="33" viewBox="0 0 33 33" fill="none" xmlns="http://www.w3.org/2000/svg">
<g clip-path="url(#clip0_141_56586)">
<path d="M31.7745 23.1238H0.503746C0.195368 23.1238 -0.0546875 22.8738 -0.0546875 22.5654V2.46273C-0.0546875 2.15435 0.195368 1.9043 0.503746 1.9043H31.7746C32.083 1.9043 32.333 2.15435 32.333 2.46273V22.5654C32.333 22.8738 32.0829 23.1238 31.7745 23.1238Z" fill="#73AF00"/>
<path d="M6.64475 9.11566C6.69978 9.46845 6.91302 9.57915 7.09843 9.56466C7.31704 9.54771 7.50878 9.34781 7.50878 9.13666V7.92605C7.50878 7.86545 7.55812 7.81598 7.61884 7.81598C7.67957 7.81598 7.72891 7.86539 7.72891 7.92605V9.14185C7.72891 9.28804 7.80115 9.42436 7.92229 9.50621C7.99624 9.55631 8.08233 9.58206 8.16905 9.58206C8.22428 9.58206 8.27975 9.57149 8.33264 9.55043L8.44264 9.50646C8.45276 10.5227 8.39096 11.4158 8.38982 11.4322C8.38122 11.5535 8.47244 11.6588 8.5937 11.6674C8.59908 11.6678 8.60433 11.668 8.60964 11.668C8.72414 11.668 8.82073 11.5795 8.82902 11.4636C8.83414 11.392 8.90195 10.4139 8.88165 9.33086L8.94819 9.30429C9.00652 9.28108 9.07205 9.28386 9.12816 9.31182C9.37062 9.43264 9.66237 9.38552 9.85397 9.19397L9.89363 9.15438C10.0715 8.97618 10.1327 8.71733 10.053 8.47854L9.86561 7.91624C9.96695 7.94673 10.0783 7.90188 10.1272 7.80428C10.1816 7.69554 10.1376 7.56333 10.0288 7.50893L9.58861 7.2888C9.50897 7.24882 9.41339 7.26109 9.34589 7.31929C9.27858 7.3778 9.25315 7.47085 9.2813 7.5553L9.63548 8.61789C9.66199 8.69741 9.64162 8.78381 9.58235 8.84315L9.54275 8.88275C9.48537 8.94012 9.39795 8.9541 9.32489 8.91798C9.18224 8.84669 9.0198 8.83334 8.86741 8.87218C8.83648 8.16567 8.76038 7.46212 8.59832 6.97574C8.55992 6.86048 8.43549 6.79798 8.3198 6.83663C8.20448 6.87491 8.14217 6.99952 8.18063 7.11503C8.33922 7.59066 8.40829 8.31552 8.43284 9.03627L8.16931 9.14166V7.92586C8.16931 7.62235 7.92241 7.37552 7.61897 7.37552C7.31553 7.37552 7.06863 7.62229 7.06863 7.92586V8.99143L6.84407 7.88221C6.82016 7.76291 6.70415 7.6851 6.58472 7.71003C6.46548 7.73432 6.38843 7.85039 6.41266 7.96951L6.64475 9.11566Z" fill="#F5F5F5"/>
<path d="M7.06612 7.26671C7.18785 7.26671 7.28653 7.16815 7.28653 7.04629V6.82588C7.28653 6.70409 7.18785 6.60547 7.06612 6.60547C6.94438 6.60547 6.8457 6.70402 6.8457 6.82588V7.04629C6.8457 7.16809 6.94438 7.26671 7.06612 7.26671Z" fill="#F5F5F5"/>
<path d="M9.26924 7.0463H9.48965C9.61139 7.0463 9.71007 6.94774 9.71007 6.82588C9.71007 6.70409 9.61139 6.60547 9.48965 6.60547H9.26924C9.14751 6.60547 9.04883 6.70402 9.04883 6.82588C9.04883 6.94774 9.14751 7.0463 9.26924 7.0463Z" fill="#F5F5F5"/>
<path d="M7.83446 9.93866L6.73385 10.5991C6.62954 10.6616 6.59582 10.7968 6.65839 10.9011C6.69963 10.9699 6.7725 11.008 6.84734 11.008C6.88592 11.008 6.92495 10.9978 6.96044 10.9765L8.06105 10.3161C8.16536 10.2536 8.19908 10.1184 8.13652 10.0141C8.07395 9.90982 7.93884 9.8761 7.83446 9.93866Z" fill="#F5F5F5"/>
<path d="M10.801 10.3277L10.8062 10.3242C10.8246 10.3986 10.8563 10.4706 10.9077 10.5311C10.9972 10.6364 11.1313 10.6893 11.2829 10.6768C11.4979 10.6611 11.644 10.5629 11.7408 10.436C11.7555 10.4462 11.771 10.4554 11.7872 10.4636C11.9062 10.5235 12.0438 10.519 12.1748 10.451C12.5075 10.2797 12.5791 9.88336 12.569 9.67613C12.5631 9.55531 12.4603 9.47004 12.3398 9.46764C12.2189 9.47282 12.1248 9.57536 12.1292 9.69618C12.1293 9.69897 12.1342 9.96016 11.9745 10.0571C11.9484 10.0208 11.9176 9.93909 11.9059 9.8716C11.8873 9.7583 11.7833 9.67942 11.6713 9.68847C11.5572 9.69745 11.469 9.79335 11.4686 9.90791C11.4685 9.93991 11.4614 10.2224 11.2434 10.246C11.218 10.2114 11.2176 10.0657 11.2426 9.95794C11.2636 9.86957 11.2282 9.77734 11.1534 9.72579C11.0785 9.67398 10.9798 9.67398 10.9046 9.72497L10.7817 9.80853C10.7234 8.532 10.589 7.04451 10.5873 7.02547C10.5764 6.90465 10.47 6.81457 10.3482 6.82621C10.2272 6.83715 10.1379 6.94425 10.1489 7.06551C10.1508 7.08588 10.3062 8.80691 10.3542 10.1212C10.3429 10.1319 10.3313 10.1436 10.3203 10.1538C10.2333 9.93441 10.0607 9.79619 9.83851 9.77513C9.52488 9.74742 9.18506 9.96085 9.06323 10.2657C8.95822 10.528 9.02433 10.7857 9.23149 10.9222C9.38046 11.0204 9.60528 11.0513 9.88797 10.9523C9.81896 11.1947 9.69327 11.4407 9.52994 11.6309C9.38363 11.8014 9.13933 11.998 8.82671 11.9893C8.64472 11.9821 8.50492 11.9226 8.39922 11.8069C8.14436 11.5286 8.16631 11.0247 8.1665 11.0193C8.17282 10.8981 8.07996 10.7947 7.95882 10.788C7.8368 10.7751 7.73356 10.8742 7.72686 10.9957C7.72534 11.0236 7.69339 11.6857 8.07249 12.1021C8.2591 12.3074 8.50701 12.4173 8.80938 12.4291C8.82412 12.4297 8.83885 12.4299 8.85366 12.4299C9.22188 12.4299 9.57915 12.2493 9.86375 11.9176C10.1315 11.6059 10.3133 11.1825 10.3678 10.7894C10.3671 11.5424 9.91328 12.3917 9.31164 12.7659C9.05614 12.9245 8.65781 13.0677 8.20913 12.8465C7.65601 12.5734 7.72192 11.9412 7.72483 11.9154C7.73995 11.7948 7.65437 11.6848 7.53373 11.6697C7.41367 11.6551 7.30297 11.74 7.28804 11.8608C7.28311 11.9002 7.17734 12.8282 8.01436 13.2411C8.22937 13.3473 8.45419 13.4 8.68078 13.4C8.97182 13.4 9.26559 13.3129 9.54405 13.1396C10.2766 12.6843 10.8082 11.6951 10.8082 10.7876C10.8082 10.6457 10.8055 10.4907 10.801 10.3277ZM9.47364 10.5546C9.43429 10.5285 9.46504 10.4454 9.47168 10.4288C9.51805 10.3128 9.66303 10.2124 9.77886 10.2124C9.7848 10.2124 9.79081 10.2126 9.79657 10.2132C9.82472 10.2158 9.89942 10.2229 9.93156 10.389C9.93498 10.4067 9.93789 10.4247 9.94016 10.4432C9.69485 10.5873 9.53038 10.5918 9.47364 10.5546Z" fill="#F5F5F5"/>
<path d="M7.17889 12.5789C7.07457 12.5176 6.93984 12.5526 6.87797 12.6569C6.86785 12.6739 6.85444 12.6924 6.84078 12.7091C6.83837 12.7036 6.83603 12.6975 6.83363 12.691C6.74184 12.4462 6.80719 12.069 6.84021 11.9442C6.87127 11.8269 6.80137 11.7065 6.68409 11.6751C6.56694 11.645 6.44643 11.7133 6.41493 11.8307C6.39893 11.8903 6.26362 12.4247 6.42138 12.8456C6.5224 13.1147 6.67751 13.1827 6.78992 13.1918C6.79991 13.1927 6.80978 13.1931 6.81959 13.1931C7.05655 13.1931 7.21425 12.9543 7.25808 12.8787C7.31887 12.7738 7.28326 12.6404 7.17889 12.5789Z" fill="#F5F5F5"/>
<path d="M11.2398 8.58649C11.2875 8.58649 11.3354 8.57118 11.3756 8.53943L12.4854 7.66819C12.5007 7.65617 12.5105 7.64042 12.5217 7.62562C12.6816 7.52921 12.7897 7.35563 12.7897 7.15581C12.7897 6.8523 12.5428 6.60547 12.2393 6.60547C11.9359 6.60547 11.689 6.85223 11.689 7.15581C11.689 7.32565 11.768 7.47576 11.8892 7.57678L11.1037 8.19341C11.0081 8.26844 10.9915 8.40684 11.0665 8.5023C11.11 8.55765 11.1746 8.58649 11.2398 8.58649ZM12.2394 7.04568C12.3001 7.04568 12.3495 7.09508 12.3495 7.15574C12.3495 7.21641 12.3001 7.26581 12.2394 7.26581C12.1787 7.26581 12.1293 7.21641 12.1293 7.15574C12.1293 7.09508 12.1787 7.04568 12.2394 7.04568Z" fill="#F5F5F5"/>
<path d="M11.9798 8.37765C11.8639 8.339 11.7397 8.4015 11.7013 8.51675C11.6778 8.58722 11.5713 8.95038 11.7871 9.1659C11.8708 9.24971 11.9808 9.29165 12.116 9.2914C12.2062 9.2914 12.3077 9.27293 12.42 9.23529C12.5354 9.19702 12.5977 9.0724 12.5592 8.9569C12.5207 8.84164 12.3963 8.77889 12.2807 8.81779C12.1577 8.85866 12.1057 8.85202 12.101 8.85625C12.088 8.82361 12.0965 8.72531 12.1191 8.65503C12.1572 8.54016 12.0949 8.41592 11.9798 8.37765Z" fill="#F5F5F5"/>
<path d="M14.5003 7.46639C14.521 7.4724 14.5417 7.47519 14.5621 7.47519C14.6574 7.47519 14.7452 7.41288 14.7733 7.31673L14.9017 6.87652C14.9357 6.75981 14.8687 6.63747 14.7521 6.6035C14.6351 6.56972 14.5132 6.6364 14.4791 6.75311L14.3507 7.19331C14.3166 7.31021 14.3836 7.43249 14.5003 7.46639Z" fill="#F5F5F5"/>
<path d="M13.2151 7.4415C13.25 7.46193 13.2883 7.47161 13.326 7.47161C13.4016 7.47161 13.4753 7.43271 13.5162 7.36268C13.5775 7.2578 13.5422 7.12275 13.4373 7.06151C13.393 7.03571 13.399 6.96283 13.4007 6.94841C13.4073 6.89059 13.4417 6.82006 13.5017 6.8014C13.6178 6.76534 13.6826 6.64193 13.6465 6.52585C13.6102 6.40959 13.487 6.34525 13.3708 6.38093C13.1513 6.44925 12.9913 6.65243 12.9632 6.89837C12.9371 7.12724 13.0337 7.33535 13.2151 7.4415Z" fill="#F5F5F5"/>
<path d="M11.4701 11.0078C11.3486 11.0078 11.25 11.1062 11.25 11.2279C11.25 11.3354 11.327 11.4249 11.4288 11.4442C11.4404 11.4611 11.4701 11.5194 11.4701 11.6682C11.4701 11.7898 11.5686 11.8883 11.6902 11.8883C11.8118 11.8883 11.9103 11.7899 11.9103 11.6682C11.9104 11.0153 11.4881 11.0078 11.4701 11.0078Z" fill="#F5F5F5"/>
<path d="M15.2041 10.0963C15.2317 10.1009 15.2593 10.1029 15.2869 10.1029C15.4598 10.1029 15.6346 10.0157 15.8076 9.84264C15.8936 9.75667 15.8936 9.61738 15.8076 9.53141C15.7217 9.44544 15.5824 9.44544 15.4964 9.53141C15.3648 9.66318 15.2939 9.66596 15.2758 9.66185C15.2338 9.65584 15.1957 9.60099 15.1872 9.586C15.132 9.47891 15.001 9.43621 14.8932 9.4901C14.7845 9.5445 14.7404 9.67671 14.7948 9.78545C14.8084 9.81278 14.9355 10.0527 15.2041 10.0963Z" fill="#F5F5F5"/>
<path d="M18.9459 8.54852C18.9446 8.5451 18.9432 8.54187 18.9422 8.53884C18.9031 8.42453 18.7784 8.36235 18.6643 8.40125C18.5489 8.43952 18.4866 8.56414 18.525 8.67965C18.5422 8.7312 18.6403 8.99005 18.8832 9.02269C18.8995 9.02484 18.9156 9.02592 18.9316 9.02592C19.0841 9.02592 19.2271 8.92724 19.3573 8.73203C19.4247 8.631 19.3974 8.4943 19.2962 8.42681C19.1949 8.3595 19.0582 8.38658 18.991 8.48792C18.9736 8.51391 18.9585 8.53371 18.9459 8.54852Z" fill="#F5F5F5"/>
<path d="M18.5137 12.5478C18.5137 11.6091 18.4725 10.7285 18.4151 9.95694C18.7277 10.499 19.0089 11.0467 19.188 11.5246C19.2212 11.6129 19.305 11.6673 19.3941 11.6673C19.4198 11.6673 19.4459 11.6628 19.4713 11.6534C19.5852 11.6106 19.6429 11.4838 19.6002 11.3698C19.3216 10.6271 18.8208 9.74249 18.3272 8.95722C18.2069 7.77146 18.0722 7.01883 18.0698 7.00542C18.0481 6.88574 17.9338 6.8049 17.8139 6.82824C17.6943 6.84994 17.615 6.96449 17.6367 7.08405C17.6385 7.0936 17.7078 7.4813 17.7907 8.1338C17.6216 7.88286 17.4645 7.65646 17.3326 7.47011L17.3434 7.47352C17.4593 7.51217 17.5834 7.44968 17.6219 7.33442C17.6604 7.21898 17.5981 7.0943 17.4827 7.05603L16.8223 6.83589C16.7307 6.80496 16.6302 6.83766 16.5742 6.91591C16.5592 6.93679 16.5489 6.95969 16.542 6.98334C16.4102 6.88593 16.2412 6.80673 16.0825 6.87315C15.9866 6.91294 15.8722 7.01308 15.8722 7.26478C15.8722 7.45803 15.9459 7.66696 16.0241 7.88836C16.1537 8.25551 16.2349 8.52549 16.0976 8.65428C16.0217 8.72538 15.9459 8.75227 15.872 8.73361C15.7363 8.69919 15.6019 8.5184 15.5124 8.24994C15.5085 8.2383 15.5004 8.22983 15.4948 8.21939C15.5411 7.87843 15.5209 7.46764 15.4276 7.0015C15.4039 6.8822 15.2882 6.80458 15.1686 6.82887C15.0494 6.85272 14.9721 6.96861 14.996 7.08791C15.1397 7.8067 15.0965 8.39309 14.8807 8.6565C14.7972 8.7584 14.6925 8.80566 14.5515 8.80566C14.5069 8.80566 14.4764 8.79149 14.4461 8.75663C14.2725 8.55649 14.2732 7.91076 14.3292 7.51584C14.3382 7.4529 14.3192 7.38882 14.2774 7.34062C14.2356 7.29248 14.175 7.26478 14.1113 7.26478C13.7325 7.26478 13.5889 7.69556 13.4622 8.07561C13.4066 8.24267 13.303 8.55326 13.2308 8.58552C13.0976 8.58552 13.0114 8.19428 13.0106 7.92493C13.0103 7.80347 12.9119 7.70523 12.7905 7.70523C12.7905 7.70523 12.7903 7.70523 12.7901 7.70523C12.6687 7.70523 12.5703 7.80366 12.5703 7.92512C12.5703 8.43282 12.7433 9.02573 13.2307 9.02573C13.5937 9.02573 13.7407 8.63018 13.8638 8.26259C13.8852 8.5549 13.9512 8.85778 14.1135 9.04483C14.2275 9.17641 14.3789 9.2458 14.5515 9.2458C14.8232 9.2458 15.0547 9.13851 15.221 8.93559C15.2512 8.8989 15.2771 8.8567 15.3028 8.81413C15.4305 8.99581 15.5874 9.11568 15.764 9.16028C15.8158 9.17337 15.868 9.18001 15.9195 9.18001C16.0894 9.18001 16.2555 9.10992 16.3989 8.97512C16.4287 8.94704 16.4497 8.91648 16.4724 8.88631C16.5262 8.90168 16.5808 8.91079 16.635 8.91079C16.8133 8.91079 16.985 8.83899 17.0916 8.77061C17.1935 8.70527 17.2229 8.57028 17.1582 8.46793C17.0934 8.36583 16.9578 8.33528 16.8552 8.39935C16.8533 8.40024 16.7063 8.48475 16.606 8.46489C16.6062 8.22356 16.5189 7.96731 16.4392 7.74154C16.3939 7.61294 16.3473 7.48124 16.3254 7.37358C16.3435 7.38889 16.3612 7.40476 16.3771 7.4202C16.4629 7.50616 16.6023 7.50616 16.6883 7.4202C16.7025 7.40597 16.7107 7.3887 16.7202 7.37206C16.9484 7.68638 17.4177 8.34692 17.9004 9.10834C17.9926 10.0442 18.0734 11.2381 18.0734 12.5475C18.0734 12.6691 18.172 12.7676 18.2936 12.7676C18.4151 12.7679 18.5137 12.6695 18.5137 12.5478Z" fill="#F5F5F5"/>
<path d="M18.7339 7.70553C18.7339 7.82718 18.8324 7.92567 18.954 7.92567C19.0756 7.92567 19.1741 7.82724 19.1741 7.70553C19.1741 7.4465 18.9715 7.02799 18.9308 6.9467C18.8764 6.83815 18.7443 6.79431 18.6354 6.84827C18.5267 6.90267 18.4825 7.03488 18.537 7.14362C18.6164 7.30246 18.7339 7.59072 18.7339 7.70553Z" fill="#F5F5F5"/>
<path d="M17.7328 12.5727C17.6248 12.5176 17.4923 12.5613 17.4373 12.6696C17.4136 12.7158 17.377 12.7672 17.3461 12.8003C17.3363 12.7128 17.3596 12.5381 17.404 12.3932C17.4336 12.2965 17.3935 12.192 17.3069 12.14C17.2206 12.0878 17.1093 12.1013 17.0379 12.1729L16.5977 12.6131C16.5117 12.699 16.5117 12.8383 16.5977 12.9243C16.6836 13.0103 16.8229 13.0103 16.9089 12.9243L16.9201 12.9131C16.9391 13.0015 16.9756 13.0821 17.0379 13.1444C17.1205 13.227 17.2203 13.2706 17.3239 13.2706C17.344 13.2706 17.3642 13.2689 17.3845 13.2657C17.6338 13.2253 17.7891 12.9504 17.8307 12.8671C17.8848 12.7586 17.8409 12.6273 17.7328 12.5727Z" fill="#F5F5F5"/>
<path d="M17.6471 10.7999H16.0957C16.1095 10.7451 16.1236 10.6928 16.1381 10.6432C16.7568 10.5146 17.1245 10.3149 17.2326 10.0484C17.27 9.95603 17.309 9.76923 17.1498 9.55447C17.0063 9.36097 16.8037 9.27418 16.5933 9.31713C16.2805 9.38052 16.0018 9.71755 15.8018 10.2571C15.1805 10.3635 14.7827 10.5866 14.5309 10.8066C14.4416 9.9046 14.0914 9.36875 14.0743 9.34326C14.0069 9.24198 13.8701 9.21466 13.7691 9.28215C13.668 9.34965 13.6407 9.48616 13.708 9.58737C13.712 9.59338 14.1113 10.2041 14.1113 11.2262C14.1113 12.2309 13.3101 12.9872 12.7906 12.9872C12.5435 12.9872 12.4352 12.6934 12.3877 12.4449C12.8964 12.0884 13.3453 11.6759 13.4444 11.2795C13.5786 10.7431 13.4098 10.3478 13.2981 10.0863C13.2928 10.0743 13.2873 10.0614 13.2817 10.048C13.2865 10.0523 13.291 10.0568 13.2955 10.0611C13.3812 10.1471 13.5207 10.1471 13.6066 10.0611C13.6926 9.97513 13.6926 9.83584 13.6066 9.74987C13.478 9.62108 13.2281 9.41879 13.0009 9.51386C12.905 9.55365 12.7906 9.65379 12.7906 9.90549C12.7906 10.0192 12.8381 10.1303 12.8931 10.2593C12.9923 10.4912 13.1156 10.78 13.0173 11.1728C12.9591 11.4054 12.6736 11.6874 12.2968 11.9675C12.2563 11.9192 12.198 11.8868 12.1302 11.8868H12.1298C12.0084 11.887 11.91 11.9852 11.91 12.1066C11.91 12.1462 11.9118 12.1886 11.9143 12.232C11.4432 12.5371 10.9102 12.8195 10.4981 13.0069C10.3875 13.0572 10.3386 13.1876 10.3889 13.2983C10.4258 13.3794 10.5058 13.4273 10.5894 13.4273C10.6199 13.4273 10.6509 13.4211 10.6803 13.4076C10.8041 13.3514 11.3915 13.0776 11.995 12.7037C12.1062 13.081 12.3417 13.4275 12.7905 13.4275C13.3186 13.4275 13.9177 12.9957 14.2634 12.351C14.3051 12.4247 14.3531 12.4953 14.4103 12.5611C14.9644 13.2 16.0466 13.2073 16.0924 13.2073C16.2109 13.2073 16.3081 13.1136 16.3124 12.9952C16.3166 12.8767 16.2263 12.7761 16.1081 12.7677C16.1064 12.7676 15.9309 12.7482 15.8334 12.6343C15.7745 12.5655 15.751 12.4709 15.7614 12.3452C15.7839 12.0739 16.6589 11.8711 17.4301 11.8592C17.522 11.8577 17.6033 11.7994 17.6341 11.7128L17.8543 11.0938C17.8782 11.0265 17.8679 10.9514 17.8266 10.8932C17.7858 10.8347 17.7186 10.7999 17.6471 10.7999ZM16.6809 9.74874C16.6851 9.74791 16.6907 9.74658 16.6977 9.74658C16.7187 9.74658 16.752 9.7569 16.7962 9.81667C16.8046 9.82787 16.8314 9.86608 16.8246 9.8829C16.7994 9.94521 16.6474 10.0482 16.3308 10.1415C16.47 9.86975 16.6062 9.76379 16.6809 9.74874ZM15.3516 12.6423C15.128 12.5696 14.9 12.4544 14.7423 12.2719C14.5689 12.0714 14.5049 11.8177 14.5469 11.4968C14.5532 11.4799 14.5676 11.4467 14.5928 11.4035C14.9028 11.3751 15.7309 11.4972 15.7882 11.7344C15.5328 11.8647 15.3447 12.0481 15.3229 12.3087C15.312 12.4394 15.3253 12.5501 15.3516 12.6423Z" fill="#F5F5F5"/>
<path d="M20.0427 7.63623L19.8226 6.97583C19.7871 6.86968 19.677 6.80623 19.5677 6.83027C19.458 6.85374 19.3835 6.95577 19.3947 7.06736C19.5466 8.58629 19.8339 11.5484 19.8339 11.8881C19.8339 12.1931 19.2913 12.7937 18.4147 13.2321C18.306 13.2865 18.2618 13.4186 18.3163 13.5274C18.3549 13.6046 18.4326 13.6491 18.5134 13.6491C18.5464 13.6491 18.5801 13.6415 18.6116 13.6259C19.4124 13.2254 20.2742 12.5109 20.2742 11.8881C20.2742 11.5629 20.0492 9.22285 19.9204 7.90836C20.0247 7.86383 20.0792 7.74592 20.0427 7.63623Z" fill="#F5F5F5"/>
<path d="M21.881 9.62187C21.9234 9.66426 21.9797 9.6864 22.0367 9.6864C22.0739 9.6864 22.1114 9.67697 22.1455 9.65755C22.2316 9.60853 22.2743 9.50795 22.25 9.41186C22.2106 9.25713 22.1974 9.06363 22.2183 8.98456C22.3285 8.98797 22.4309 8.90953 22.4471 8.7958C22.4642 8.67542 22.3807 8.56383 22.2604 8.54669C22.1148 8.52695 21.987 8.56972 21.8978 8.66897C21.8399 8.73349 21.8055 8.81623 21.7869 8.90523L21.532 8.65031C21.446 8.56434 21.3067 8.56434 21.2207 8.65031C21.1348 8.73627 21.1348 8.87556 21.2207 8.96153L21.881 9.62187Z" fill="#F5F5F5"/>
<path d="M22.3744 9.85114L21.549 10.4427C21.4502 10.5134 21.4274 10.651 21.4982 10.7499C21.5412 10.8099 21.6088 10.8417 21.6774 10.8417C21.7218 10.8417 21.7666 10.8283 21.8055 10.8004L22.6309 10.2089C22.7297 10.1381 22.7525 10.0005 22.6817 9.90168C22.6107 9.80274 22.4729 9.77972 22.3744 9.85114Z" fill="#F5F5F5"/>
<path d="M22.3022 10.6788C22.2329 10.768 22.2429 10.8935 22.3215 10.9707C22.3309 10.9867 22.3739 11.0709 22.3661 11.2876C22.3618 11.4092 22.4568 11.5111 22.5783 11.5154C22.5809 11.5156 22.5836 11.5156 22.5862 11.5156C22.7043 11.5156 22.8019 11.4221 22.8061 11.3034C22.8221 10.8542 22.6751 10.69 22.6112 10.6403C22.5154 10.5653 22.3769 10.5829 22.3022 10.6788Z" fill="#F5F5F5"/>
<path d="M24.224 12.3005C24.3456 12.3005 24.4442 12.2021 24.4442 12.0804C24.4442 11.7556 24.4275 11.393 24.4002 11.0158C24.6185 11.3735 24.7998 11.7032 24.9161 11.9744C24.9518 12.058 25.033 12.1079 25.1184 12.1079C25.1473 12.1079 25.1768 12.1023 25.205 12.09C25.3167 12.0421 25.3685 11.9127 25.3205 11.8011C25.119 11.3308 24.7424 10.7079 24.3134 10.0647C24.2271 9.25681 24.1143 8.46514 24.0266 7.89728C24.0732 7.90203 24.1216 7.89064 24.1641 7.86306C24.2336 7.81853 24.2662 7.74116 24.2615 7.66418C24.2671 7.68581 24.2732 7.70751 24.2858 7.72744C24.2874 7.72959 24.4288 7.9632 24.3661 8.26639C24.3414 8.38525 24.418 8.50177 24.537 8.52644C24.5521 8.52941 24.5671 8.53099 24.5818 8.53099C24.684 8.53099 24.7756 8.45939 24.7972 8.35539C24.8966 7.87451 24.667 7.50654 24.6573 7.49105C24.5919 7.3887 24.4558 7.35865 24.3533 7.42355C24.2835 7.46802 24.2505 7.54545 24.255 7.62262C24.2493 7.60086 24.243 7.57897 24.2302 7.55905L23.8587 6.98126C23.8019 6.89308 23.6908 6.8574 23.5934 6.89529C23.4957 6.93356 23.4385 7.03522 23.4567 7.13839C23.4598 7.15572 23.628 8.12166 23.7771 9.2859C23.6083 9.04761 23.4396 8.81464 23.2759 8.59223C23.2494 8.25918 23.2227 7.95131 23.1996 7.6967C23.2117 7.69309 23.2237 7.68835 23.2354 7.68253C23.3441 7.62812 23.3883 7.49592 23.3338 7.38718L23.1137 6.94697C23.0662 6.85196 22.9578 6.80464 22.8557 6.83387C22.7537 6.86354 22.6872 6.96152 22.6978 7.06729C22.724 7.32999 22.7514 7.62079 22.7782 7.92626C22.6389 7.74275 22.5102 7.57474 22.3999 7.43247C22.4214 7.414 22.4397 7.39104 22.4533 7.3639C22.5077 7.25516 22.4636 7.12295 22.3549 7.06855L21.9147 6.84842C21.8223 6.80243 21.7102 6.82653 21.645 6.90693C21.5801 6.98733 21.5797 7.10208 21.6444 7.18292C21.6562 7.19772 22.1982 7.8771 22.8466 8.75397C22.959 10.2083 23.0339 11.7212 22.9282 12.0384C22.9088 12.0964 22.875 12.1648 22.8433 12.1672C22.7103 12.1857 22.3927 11.8882 22.2333 11.5694C22.1414 11.3859 22.0092 11.3667 21.9384 11.3699C21.7019 11.3845 21.6096 11.6448 21.4418 12.1174C21.3216 12.4559 21.1721 12.8768 21.0044 13.049C20.9135 12.9379 20.796 12.5653 20.7307 12.1824C20.7613 12.267 20.8405 12.3283 20.9358 12.3283C21.0574 12.3283 21.1559 12.2298 21.1559 12.1081C21.1559 11.7798 20.9264 9.27983 20.7982 7.90975C20.9053 7.86673 20.9616 7.74705 20.9246 7.63609L20.7044 6.97569C20.6691 6.86954 20.5604 6.80692 20.45 6.82995C20.3405 6.85316 20.2658 6.95482 20.2764 7.06621C20.426 8.63651 20.7065 11.6696 20.7152 12.0882C20.7147 12.0844 20.7139 12.0807 20.7134 12.0769C20.6963 11.9566 20.584 11.874 20.4644 11.8901C20.344 11.9075 20.2605 12.0189 20.2776 12.1392C20.3419 12.5892 20.5062 13.3628 20.8844 13.4888C20.9143 13.4989 20.9545 13.5079 21.0017 13.5079C21.0885 13.5079 21.1987 13.4771 21.3115 13.3643C21.5512 13.1246 21.7135 12.6676 21.8566 12.2646C21.889 12.1734 21.9273 12.0655 21.9634 11.9731C22.1653 12.268 22.5176 12.6351 22.8746 12.6064C23.0001 12.5974 23.2284 12.5299 23.3458 12.1778C23.4628 11.8266 23.4166 10.602 23.3377 9.42962C23.5232 9.68955 23.7087 9.95573 23.8859 10.2186C23.9546 10.8778 24.0037 11.5382 24.0037 12.0806C24.004 12.202 24.1025 12.3005 24.224 12.3005Z" fill="#F5F5F5"/>
<path d="M25.895 11.1437C25.739 9.98201 25.5218 8.63634 25.3842 7.81046C25.4463 7.82577 25.514 7.81324 25.5686 7.7713C25.6653 7.69761 25.6839 7.55933 25.6101 7.46286L25.2111 6.94004C25.1495 6.85964 25.0409 6.8313 24.948 6.87191C24.855 6.91252 24.8019 7.01146 24.8192 7.1114C24.8232 7.13392 25.2157 9.39359 25.4585 11.2021C25.5512 11.8932 25.4159 12.5108 25.0961 12.8539C24.8906 13.0743 24.6182 13.174 24.2887 13.1548C24.1677 13.1483 24.0627 13.2394 24.0551 13.3607C24.0475 13.482 24.1396 13.5865 24.261 13.5941C24.2982 13.5965 24.3348 13.5975 24.3711 13.5975C24.7862 13.5975 25.1464 13.4454 25.4181 13.1539C25.833 12.709 26.0068 11.9762 25.895 11.1437Z" fill="#F5F5F5"/>
<path d="M23.4707 12.5944C23.3898 12.6823 23.396 12.8207 23.4816 12.9038C23.4935 12.9154 23.5078 12.9382 23.5079 12.9494C23.508 12.9556 23.4991 12.9741 23.4746 12.9986C23.3887 13.0846 23.3887 13.2239 23.4746 13.3098C23.5176 13.3528 23.5739 13.3743 23.6303 13.3743C23.6866 13.3743 23.743 13.3528 23.786 13.3098C23.9256 13.1703 23.9512 13.0286 23.948 12.9343C23.9413 12.7311 23.8029 12.6 23.7754 12.5757C23.6853 12.4975 23.5515 12.5069 23.4707 12.5944Z" fill="#F5F5F5"/>
<path d="M22.6963 17.4207H22.4762H21.1555V17.2006C21.1555 17.079 21.0569 16.9805 20.9353 16.9805C20.8138 16.9805 20.7152 17.0789 20.7152 17.2006V17.4207H9.04883C9.48903 17.8609 10.3695 18.0811 11.0299 18.0811C11.5035 18.0811 17.4112 18.0811 20.7152 18.0811V18.5213C20.7152 18.643 20.8138 18.7415 20.9353 18.7415H22.6963C23.0605 18.7415 23.3567 18.4452 23.3567 18.0811C23.3567 17.7169 23.0605 17.4207 22.6963 17.4207ZM22.6963 18.3012H21.1554V18.0811C22.2162 18.0811 22.9164 18.0811 22.9164 18.0811L22.8768 17.9626C22.8997 17.9973 22.9164 18.0364 22.9164 18.0811C22.9164 18.2026 22.8176 18.3012 22.6963 18.3012Z" fill="#F5F5F5"/>
</g>
<defs>
<clipPath id="clip0_141_56586">
<rect width="32.3877" height="32.3877" fill="white"/>
</clipPath>
</defs>
</svg>
