<svg width="24" height="24" viewBox="0 0 24 24" fill="none" xmlns="http://www.w3.org/2000/svg">
<path d="M7.91036 13.0167C7.82136 13.1467 7.77936 13.2937 7.77936 13.4397C7.77936 13.6787 7.89336 13.9147 8.10536 14.0597C8.44736 14.2937 8.91436 14.2067 9.14836 13.8647C10.2354 12.2757 11.5824 10.7957 11.9684 10.6987C12.4154 10.7957 13.7624 12.2757 14.8524 13.8647C15.0864 14.2067 15.5524 14.2937 15.8944 14.0587C16.2354 13.8277 16.3224 13.3607 16.0904 13.0167C15.1124 11.5907 13.2824 9.20068 11.9994 9.20068C10.7154 9.20068 8.88636 11.5917 7.91036 13.0167Z" fill="black"/>
<path fill-rule="evenodd" clip-rule="evenodd" d="M12 2C4.617 2 2 4.617 2 12C2 19.383 4.617 22 12 22C19.383 22 22 19.383 22 12C22 4.617 19.383 2 12 2ZM12 3.5C18.514 3.5 20.5 5.486 20.5 12C20.5 18.514 18.514 20.5 12 20.5C5.486 20.5 3.5 18.514 3.5 12C3.5 5.486 5.486 3.5 12 3.5Z" fill="black"/>
</svg>
