<svg width="25" height="25" viewBox="0 0 25 25" fill="none" xmlns="http://www.w3.org/2000/svg">
<path fill-rule="evenodd" clip-rule="evenodd" d="M9.36426 2.24414C9.36426 1.69186 8.91654 1.24414 8.36426 1.24414C7.81197 1.24414 7.36426 1.69186 7.36426 2.24414V4.24414H5.36426C3.7074 4.24414 2.36426 5.58729 2.36426 7.24414V19.2441C2.36426 20.901 3.7074 22.2441 5.36426 22.2441H19.3643C21.0211 22.2441 22.3643 20.901 22.3643 19.2441V7.24414C22.3643 5.58729 21.0211 4.24414 19.3643 4.24414H17.3643V2.24414C17.3643 1.69186 16.9165 1.24414 16.3643 1.24414C15.812 1.24414 15.3643 1.69186 15.3643 2.24414V4.24414H9.36426V2.24414ZM8.36426 6.24414H16.3643H19.3643C19.9165 6.24414 20.3643 6.69186 20.3643 7.24414V10.2441H4.36426V7.24414C4.36426 6.69186 4.81197 6.24414 5.36426 6.24414H8.36426ZM4.36426 12.2441V19.2441C4.36426 19.7964 4.81197 20.2441 5.36426 20.2441H19.3643C19.9165 20.2441 20.3643 19.7964 20.3643 19.2441V12.2441H4.36426Z" fill="black"/>
</svg>
