<svg width="20" height="19" viewBox="0 0 20 19" fill="none" xmlns="http://www.w3.org/2000/svg">
<path opacity="0.4" fill-rule="evenodd" clip-rule="evenodd" d="M15.6191 3.53899C15.4501 3.48599 15.2041 3.37499 14.9971 3.14799C14.9111 3.05399 14.7951 2.81899 14.6831 2.59299C14.3811 1.98199 13.9681 1.14599 13.1371 0.795986C12.0691 0.347986 7.96909 0.345986 6.86609 0.793986C6.04609 1.13099 5.62809 1.97099 5.32309 2.58399C5.20809 2.81399 5.09009 3.05199 5.00209 3.14799C4.79609 3.37599 4.55009 3.48599 4.39709 3.53499C1.10009 4.44699 0.496094 6.58999 0.496094 10.48C0.496094 16.104 1.86809 18.613 10.0001 18.613C18.1311 18.613 19.5031 16.104 19.5031 10.48C19.5031 6.58999 18.9001 4.44699 15.6191 3.53899Z" fill="#6571FF"/>
<path d="M14.1675 6.91309C14.1675 7.32709 14.5075 7.66309 14.9215 7.66309C15.3355 7.66309 15.6715 7.32709 15.6715 6.91309C15.6715 6.49909 15.3355 6.16309 14.9215 6.16309H14.9125C14.4985 6.16309 14.1675 6.49909 14.1675 6.91309Z" fill="#6571FF"/>
<path fill-rule="evenodd" clip-rule="evenodd" d="M10.0005 14.3071C7.85247 14.3071 6.10547 12.5591 6.10547 10.4111C6.10547 8.26409 7.85247 6.51709 10.0005 6.51709C12.1485 6.51709 13.8955 8.26409 13.8955 10.4111C13.8955 12.5591 12.1485 14.3071 10.0005 14.3071ZM7.6056 10.4116C7.6056 9.09058 8.6796 8.01658 10.0006 8.01658C11.3216 8.01658 12.3956 9.09058 12.3956 10.4116C12.3956 11.7326 11.3216 12.8066 10.0006 12.8066C8.6796 12.8066 7.6056 11.7326 7.6056 10.4116Z" fill="#6571FF"/>
</svg>
