<svg width="27" height="27" viewBox="0 0 27 27" fill="none" xmlns="http://www.w3.org/2000/svg">
<path fill-rule="evenodd" clip-rule="evenodd" d="M15.6195 15.5089L16.188 16.0807C15.8417 16.6019 15.5946 17.1938 15.4749 17.8285L14.2405 16.5943C14.1682 16.5213 14.0829 16.5039 13.9925 16.5039C13.9021 16.5039 13.7936 16.522 13.7213 16.5943C13.5767 16.739 13.5767 16.9689 13.7213 17.1135L15.3939 18.7864C15.4243 20.6171 16.4843 22.1974 18.0201 22.9738C17.4643 22.9995 16.8999 22.8014 16.4779 22.3794L12.5686 18.4926C12.207 18.131 12.1347 17.6154 12.207 17.1815L11.3479 16.3232C11.131 16.6124 10.6884 16.6124 10.3992 16.3232L10.1056 16.0288C9.81634 15.7396 9.81634 15.3014 10.1056 15.0121L10.6704 14.4698L4.04932 7.84798L2.96461 8.00707L1.29199 5.11452L2.24147 4.16504L5.1333 5.83766L4.97566 6.92236L11.5967 13.5434L12.0711 13.069C12.1368 13.0005 12.2157 12.9459 12.3031 12.9087C12.3905 12.8714 12.4845 12.8522 12.5795 12.8522C12.6744 12.8522 12.7684 12.8714 12.8558 12.9087C12.9432 12.9459 13.0221 13.0005 13.0878 13.069L13.359 13.3395C13.5759 13.5572 13.5759 13.9997 13.359 14.289L14.3085 15.1473C14.7424 15.0027 15.258 15.1473 15.6195 15.5089ZM16.3427 4.18746C14.9159 4.06886 13.0242 5.01473 12.1391 5.83693C11.05 6.92598 11.2279 8.34984 12.0935 9.72452L10.5576 11.2612L11.6423 12.4811C12.2208 11.9749 13.0741 11.9749 13.6526 12.4811L13.9469 12.7747L14.0149 12.8427L14.6476 12.2099C15.9551 12.9786 17.316 13.0893 18.3537 12.0516C19.3661 11.1115 20.4638 8.79312 19.9576 7.41916L17.9242 9.5206C17.6349 9.80985 17.1967 9.80985 16.9074 9.5206L14.8053 7.41916C14.7367 7.35342 14.6822 7.2745 14.6449 7.18713C14.6076 7.09977 14.5884 7.00577 14.5884 6.91079C14.5884 6.81581 14.6076 6.72182 14.6449 6.63445C14.6822 6.54709 14.7367 6.46817 14.8053 6.40243L16.9082 4.30099C16.7274 4.23735 16.5466 4.20481 16.3427 4.18746ZM5.76605 15.8256L8.38814 13.2043L9.60808 14.4242C9.10188 15.0034 9.09754 15.8799 9.67605 16.4584L9.90167 16.752L8.365 18.2886C8.4648 18.6235 8.52337 18.98 8.52337 19.3509C8.52337 21.3757 6.93247 22.9666 4.90768 22.9666C2.8829 22.9666 1.29199 21.3757 1.29199 19.3509C1.29199 17.3261 2.8829 15.7352 4.90768 15.7352C5.19631 15.7327 5.48428 15.763 5.76605 15.8256ZM5.4052 17.4744L6.7835 18.8534L6.28598 20.7285L4.41089 21.226L3.03186 19.847L3.52938 17.9719L5.4052 17.4744Z" fill="#6571FF"/>
<path d="M25.6189 17.5762H22.7264C22.6767 17.5762 22.636 17.6169 22.636 17.6666V18.2089C22.636 18.2587 22.6767 18.2993 22.7264 18.2993H25.6189C25.6687 18.2993 25.7093 18.2587 25.7093 18.2089V17.6666C25.7093 17.6169 25.6687 17.5762 25.6189 17.5762ZM24.1049 19.1129H22.7264C22.6767 19.1129 22.636 19.1535 22.636 19.2033V19.7456C22.636 19.7953 22.6767 19.836 22.7264 19.836H24.1049C24.1546 19.836 24.1953 19.7953 24.1953 19.7456V19.2033C24.1953 19.1535 24.1546 19.1129 24.1049 19.1129ZM20.3344 16.5649H19.8451C19.7751 16.5649 19.7186 16.6214 19.7186 16.6915V19.4936C19.7186 19.5343 19.7378 19.5716 19.7706 19.5953L21.453 20.8224C21.5095 20.8631 21.5886 20.8518 21.6293 20.7953L21.9196 20.3987V20.3976C21.9603 20.3411 21.9479 20.262 21.8914 20.2213L20.4598 19.1863V16.6915C20.4609 16.6214 20.4033 16.5649 20.3344 16.5649Z" fill="#6571FF"/>
<path d="M24.0347 20.5354H23.3816C23.3183 20.5354 23.2584 20.5682 23.2245 20.6224C23.081 20.8495 22.9138 21.0597 22.7217 21.2518C22.3907 21.5828 22.0054 21.8427 21.5771 22.0235C21.1331 22.2111 20.6619 22.306 20.1761 22.306C19.6891 22.306 19.2179 22.2111 18.775 22.0235C18.3468 21.8427 17.9615 21.5828 17.6304 21.2518C17.2993 20.9207 17.0395 20.5354 16.8587 20.1072C16.6711 19.6643 16.5762 19.1931 16.5762 18.7061C16.5762 18.2191 16.6711 17.7491 16.8587 17.305C17.0395 16.8768 17.2993 16.4915 17.6304 16.1604C17.9615 15.8294 18.3468 15.5695 18.775 15.3887C19.2179 15.2011 19.6902 15.1062 20.1761 15.1062C20.6631 15.1062 21.1342 15.2011 21.5771 15.3887C22.0054 15.5695 22.3907 15.8294 22.7217 16.1604C22.9138 16.3525 23.081 16.5627 23.2245 16.7898C23.2584 16.844 23.3183 16.8768 23.3816 16.8768H24.0347C24.1126 16.8768 24.1624 16.7954 24.1273 16.7265C23.3906 15.261 21.8969 14.3085 20.2292 14.2893C17.7875 14.2588 15.7593 16.2576 15.7548 18.6971C15.7502 21.141 17.731 23.124 20.1749 23.124C21.8641 23.124 23.3827 22.1681 24.1273 20.6857C24.1624 20.6168 24.1115 20.5354 24.0347 20.5354Z" fill="#6571FF"/>
</svg>
