<svg width="27" height="27" viewBox="0 0 27 27" fill="none" xmlns="http://www.w3.org/2000/svg">
<path d="M9.64778 9.12045V19.3566H24.4249V9.12045H21.6908V6.8828H20.4098V9.12045H9.64778ZM8.36218 7.8405H19.1242V6.8828H18.3214V5.60059H23.7826V6.8828H22.9787V7.84276H25.7093V20.6366H8.36218V7.8405Z" fill="#6571FF"/>
<path d="M12.7843 15.1369V14.4947C13.0749 14.4947 13.3536 14.3792 13.5591 14.1737C13.7645 13.9683 13.88 13.6896 13.88 13.399H14.5233C14.5233 13.6896 14.6388 13.9683 14.8443 14.1737C15.0497 14.3792 15.3284 14.4947 15.619 14.4947C15.9096 14.4947 16.1883 14.3792 16.3937 14.1737C16.5992 13.9683 16.7146 13.6896 16.7146 13.399H17.3569C17.366 13.6836 17.4855 13.9536 17.6901 14.1517C17.8947 14.3498 18.1683 14.4606 18.4531 14.4606C18.7379 14.4606 19.0115 14.3498 19.2161 14.1517C19.4207 13.9536 19.5402 13.6836 19.5493 13.399H20.1915C20.1915 13.6896 20.307 13.9683 20.5124 14.1737C20.7179 14.3792 20.9966 14.4947 21.2872 14.4947V15.1369C21.0098 15.1369 20.7364 15.0704 20.4899 14.9432C20.2435 14.8159 20.031 14.6315 19.8704 14.4053C19.7096 14.6315 19.4971 14.8158 19.2505 14.9431C19.004 15.0703 18.7305 15.1367 18.4531 15.1367C18.1756 15.1367 17.9022 15.0703 17.6556 14.9431C17.4091 14.8158 17.1965 14.6315 17.0358 14.4053C16.875 14.6315 16.6624 14.8158 16.4159 14.9431C16.1693 15.0703 15.8959 15.1367 15.6184 15.1367C15.341 15.1367 15.0675 15.0703 14.821 14.9431C14.5744 14.8158 14.3619 14.6315 14.2011 14.4053C14.0405 14.6316 13.8281 14.816 13.5816 14.9433C13.3351 15.0706 13.0617 15.137 12.7843 15.1369Z" fill="#6571FF"/>
<path d="M1.9545 9.31709H1.29199V18.1509L7.59281 14.7049L1.9545 11.6206V9.31709ZM6.20811 14.7049L1.9545 17.0319V12.378L6.20811 14.7049Z" fill="#6571FF"/>
</svg>
