<svg width="24" height="24" viewBox="0 0 24 24" fill="none" xmlns="http://www.w3.org/2000/svg">
<path opacity="0.4" fill-rule="evenodd" clip-rule="evenodd" d="M11.9987 1.76367C4.43972 1.76367 1.76172 4.44167 1.76172 12.0007C1.76172 19.5597 4.43972 22.2377 11.9987 22.2377C19.5567 22.2377 22.2357 19.5597 22.2357 12.0007C22.2357 4.44167 19.5567 1.76367 11.9987 1.76367Z" fill="#079E5A"/>
<path d="M16.4773 17.6675C16.8913 17.6675 17.2273 17.3315 17.2273 16.9175V13.7605C17.2273 13.3465 16.8913 13.0105 16.4773 13.0105C16.0633 13.0105 15.7273 13.3465 15.7273 13.7605V16.9175C15.7273 17.3315 16.0633 17.6675 16.4773 17.6675Z" fill="#079E5A"/>
<path d="M11.9983 17.6675C12.4123 17.6675 12.7483 17.3315 12.7483 16.9175V7.01953C12.7483 6.60453 12.4123 6.26953 11.9983 6.26953C11.5843 6.26953 11.2483 6.60453 11.2483 7.01953V16.9175C11.2483 17.3315 11.5843 17.6675 11.9983 17.6675Z" fill="#079E5A"/>
<path d="M7.44434 17.6675C7.85834 17.6675 8.19434 17.3315 8.19434 16.9175V10.2235C8.19434 9.80953 7.85834 9.47353 7.44434 9.47353C7.03034 9.47353 6.69434 9.80953 6.69434 10.2235V16.9175C6.69434 17.3315 7.03034 17.6675 7.44434 17.6675Z" fill="#079E5A"/>
</svg>
