<svg width="18" height="18" viewBox="0 0 18 18" fill="none" xmlns="http://www.w3.org/2000/svg">
<path fill-rule="evenodd" clip-rule="evenodd" d="M6.36691 4.73887C6.46636 4.60661 6.65412 4.57984 6.78656 4.67906L11.9665 8.55946C12.0992 8.65887 12.1261 8.84708 12.0266 8.97967L7.20688 15.3995C6.04688 16.9495 4.29688 17.2595 3.08688 17.2595C2.33688 17.2595 1.79688 17.1395 1.73688 17.1295C1.60688 17.0995 1.48688 17.0095 1.41688 16.8895C1.34688 16.7595 -0.373121 13.6995 1.54688 11.1495L6.36691 4.73887Z" fill="#6571FF"/>
<path opacity="0.4" fill-rule="evenodd" clip-rule="evenodd" d="M13.957 6.41023L13.287 7.30096C13.1875 7.43319 12.9998 7.45992 12.8674 7.36073L7.68656 3.47969C7.55417 3.38052 7.52704 3.19289 7.62592 3.06027L8.297 2.16023C8.987 1.23023 10.057 0.740234 11.137 0.740234C11.877 0.740234 12.617 0.970234 13.257 1.45023C14.007 2.02023 14.497 2.85023 14.637 3.78023C14.767 4.72023 14.527 5.65023 13.957 6.41023Z" fill="#6571FF"/>
<path opacity="0.4" fill-rule="evenodd" clip-rule="evenodd" d="M16.6084 15.748H10.2314C9.81745 15.748 9.48145 16.084 9.48145 16.498C9.48145 16.912 9.81745 17.248 10.2314 17.248H16.6084C17.0224 17.248 17.3584 16.912 17.3584 16.498C17.3584 16.084 17.0224 15.748 16.6084 15.748Z" fill="#6571FF"/>
</svg>
