<svg width="18" height="18" viewBox="0 0 18 18" fill="none" xmlns="http://www.w3.org/2000/svg">
<path fill-rule="evenodd" clip-rule="evenodd" d="M13.0575 8.19178L14.2847 6.55689C14.8927 5.74689 15.1487 4.7489 15.0057 3.74589C14.8627 2.74289 14.3387 1.85689 13.5287 1.24889C11.8577 -0.00510514 9.4757 0.331895 8.2207 2.00489L1.4687 10.9999C-0.543301 13.6829 1.2467 16.8789 1.3237 17.0139C1.4277 17.1949 1.6027 17.3239 1.8067 17.3709C1.8647 17.3849 2.4247 17.5089 3.2057 17.5089C4.4687 17.5089 6.3067 17.1859 7.5327 15.5519L12.9013 8.39988C12.9325 8.37053 12.9616 8.3381 12.9882 8.30267C13.0149 8.26717 13.038 8.23006 13.0575 8.19178ZM2.4767 15.9619C3.2577 16.0569 5.2277 16.1239 6.3327 14.6509L11.3288 7.99511L7.66416 5.24362L2.6677 11.8999C1.5407 13.4039 2.1607 15.2449 2.4767 15.9619ZM8.56427 4.04449L12.2295 6.79514L13.0847 5.65589C13.8437 4.6459 13.6387 3.20689 12.6287 2.44789C11.6177 1.69089 10.1777 1.8959 9.4197 2.90489L8.56427 4.04449Z" fill="black"/>
<path d="M16.7325 17.2471H10.3555C9.94147 17.2471 9.60547 16.9111 9.60547 16.4971C9.60547 16.0831 9.94147 15.7471 10.3555 15.7471H16.7325C17.1465 15.7471 17.4825 16.0831 17.4825 16.4971C17.4825 16.9111 17.1465 17.2471 16.7325 17.2471Z" fill="black"/>
</svg>
