<svg width="24" height="24" viewBox="0 0 24 24" fill="none" xmlns="http://www.w3.org/2000/svg">
<path fill-rule="evenodd" clip-rule="evenodd" d="M3.25977 17.2441C3.25977 16.8299 3.59555 16.4941 4.00977 16.4941H10.4823C10.8965 16.4941 11.2323 16.8299 11.2323 17.2441C11.2323 17.6584 10.8965 17.9941 10.4823 17.9941H4.00977C3.59555 17.9941 3.25977 17.6584 3.25977 17.2441Z" fill="black"/>
<path fill-rule="evenodd" clip-rule="evenodd" d="M14.6092 14.5883C15.257 13.9407 16.2038 13.7734 17.2657 13.7734C18.3277 13.7734 19.2745 13.9407 19.9222 14.5883C20.57 15.2359 20.7375 16.1827 20.7375 17.2452C20.7375 18.3077 20.57 19.2546 19.9222 19.9022C19.2745 20.5498 18.3277 20.717 17.2657 20.717C16.2038 20.717 15.257 20.5498 14.6092 19.9022C13.9614 19.2546 13.7939 18.3077 13.7939 17.2452C13.7939 16.1827 13.9614 15.2359 14.6092 14.5883ZM15.6698 15.6491C15.4669 15.8519 15.2939 16.2659 15.2939 17.2452C15.2939 18.2245 15.4669 18.6386 15.6698 18.8414C15.8727 19.0442 16.2868 19.217 17.2657 19.217C18.2447 19.217 18.6588 19.0442 18.8617 18.8414C19.0646 18.6386 19.2375 18.2245 19.2375 17.2452C19.2375 16.2659 19.0646 15.8519 18.8617 15.6491C18.6588 15.4462 18.2447 15.2734 17.2657 15.2734C16.2868 15.2734 15.8727 15.4462 15.6698 15.6491Z" fill="black"/>
<path fill-rule="evenodd" clip-rule="evenodd" d="M12.7656 6.75537C12.7656 6.34116 13.1014 6.00537 13.5156 6.00537H19.9873C20.4015 6.00537 20.7373 6.34116 20.7373 6.75537C20.7373 7.16958 20.4015 7.50537 19.9873 7.50537H13.5156C13.1014 7.50537 12.7656 7.16958 12.7656 6.75537Z" fill="black"/>
<path fill-rule="evenodd" clip-rule="evenodd" d="M4.07518 4.09739C4.723 3.44973 5.66992 3.28223 6.73245 3.28223C7.7946 3.28223 8.74131 3.44976 9.38901 4.09746C10.0367 4.74516 10.2042 5.69187 10.2042 6.75402C10.2042 7.81651 10.0367 8.76334 9.38894 9.41098C8.74118 10.0586 7.7944 10.2258 6.73245 10.2258C5.67013 10.2258 4.72313 10.0586 4.07525 9.41105C3.42725 8.7634 3.25977 7.8165 3.25977 6.75402C3.25977 5.69187 3.42729 4.7451 4.07518 4.09739ZM5.1357 5.15819C4.93269 5.36114 4.75977 5.77526 4.75977 6.75402C4.75977 7.73332 4.93273 8.14732 5.13563 8.35011C5.33863 8.55301 5.75298 8.72581 6.73245 8.72581C7.7114 8.72581 8.12551 8.55304 8.32842 8.35018C8.53128 8.14737 8.70424 7.73331 8.70424 6.75402C8.70424 5.77527 8.53132 5.36109 8.32835 5.15812C8.12538 4.95514 7.7112 4.78223 6.73245 4.78223C5.75319 4.78223 5.33877 4.95517 5.1357 5.15819Z" fill="black"/>
</svg>
