<svg width="365" height="61" viewBox="0 0 365 61" fill="none" xmlns="http://www.w3.org/2000/svg">
<path d="M0.728516 22.5859C0.728516 18.1677 4.31024 14.5859 8.72852 14.5859H70.7285C71.8331 14.5859 72.7285 15.4814 72.7285 16.5859V28.5859C72.7285 29.6905 71.8331 30.5859 70.7285 30.5859H8.72852C4.31024 30.5859 0.728516 27.0042 0.728516 22.5859Z" fill="#F2F4F7"/>
<circle cx="6.72852" cy="22.5859" r="2" fill="#6571FF"/>
<rect x="79" y="6.22607" width="4" height="33" rx="2" fill="#6571FF"/>
<rect x="88.7285" y="14.5859" width="125" height="16" rx="2" fill="#6571FF"/>
<path d="M229.729 16.5859C229.729 15.4814 230.624 14.5859 231.729 14.5859H346.729C351.147 14.5859 354.729 18.1677 354.729 22.5859C354.729 27.0042 351.147 30.5859 346.729 30.5859H231.729C230.624 30.5859 229.729 29.6905 229.729 28.5859V16.5859Z" fill="#F2F4F7"/>
<circle cx="348.729" cy="22.5859" r="2" fill="#6571FF"/>
<rect x="220" y="6.22607" width="4" height="33" rx="2" fill="#6571FF"/>
<path d="M10.3086 54.395V56.0698C10.3086 56.8354 10.2311 57.4894 10.0762 58.0317C9.92122 58.5741 9.69792 59.0184 9.40625 59.3647C9.11458 59.7065 8.76595 59.9595 8.36035 60.1235C7.95475 60.283 7.50358 60.3628 7.00684 60.3628C6.61035 60.3628 6.24121 60.3127 5.89941 60.2124C5.55762 60.1076 5.25 59.9481 4.97656 59.7339C4.70768 59.5151 4.47526 59.2371 4.2793 58.8999C4.08789 58.5627 3.93978 58.1593 3.83496 57.6899C3.7347 57.2205 3.68457 56.6805 3.68457 56.0698V54.395C3.68457 53.6294 3.76204 52.9777 3.91699 52.4399C4.0765 51.9022 4.30208 51.4624 4.59375 51.1206C4.88542 50.7788 5.23405 50.5304 5.63965 50.3755C6.04525 50.216 6.49642 50.1362 6.99316 50.1362C7.39421 50.1362 7.76335 50.1864 8.10059 50.2866C8.44238 50.3869 8.74772 50.5441 9.0166 50.7583C9.29004 50.9679 9.52246 51.2414 9.71387 51.5786C9.90527 51.9113 10.0511 52.3123 10.1514 52.7817C10.2562 53.2466 10.3086 53.7843 10.3086 54.395ZM8.50391 56.3159V54.1421C8.50391 53.7593 8.48112 53.4266 8.43555 53.144C8.39453 52.8569 8.33301 52.6131 8.25098 52.4126C8.16895 52.2121 8.06641 52.0503 7.94336 51.9272C7.82031 51.7996 7.67904 51.7062 7.51953 51.647C7.36003 51.5877 7.18457 51.5581 6.99316 51.5581C6.75618 51.5581 6.54427 51.606 6.35742 51.7017C6.17057 51.7928 6.01335 51.9386 5.88574 52.1392C5.75814 52.3397 5.66016 52.6063 5.5918 52.939C5.52799 53.2671 5.49609 53.6681 5.49609 54.1421V56.3159C5.49609 56.6987 5.5166 57.0337 5.55762 57.3208C5.60319 57.6079 5.66699 57.854 5.74902 58.0591C5.83561 58.2642 5.93815 58.4328 6.05664 58.5649C6.17969 58.6925 6.32096 58.7882 6.48047 58.8521C6.63997 58.9113 6.81543 58.9409 7.00684 58.9409C7.24837 58.9409 7.46029 58.8931 7.64258 58.7974C7.82943 58.7017 7.98665 58.5513 8.11426 58.3462C8.24186 58.1366 8.33757 57.8654 8.40137 57.5327C8.46973 57.1955 8.50391 56.7899 8.50391 56.3159Z" fill="#858C94"/>
<path d="M76.4609 57.8042V59.2261H69.7207V58.0093L72.9541 54.5161C73.2913 54.1333 73.5579 53.8006 73.7539 53.5181C73.9499 53.2355 74.0889 52.9803 74.1709 52.7524C74.2575 52.52 74.3008 52.299 74.3008 52.0894C74.3008 51.784 74.2461 51.5174 74.1367 51.2896C74.0273 51.0571 73.8678 50.8771 73.6582 50.7495C73.4531 50.6219 73.2002 50.5581 72.8994 50.5581C72.5667 50.5581 72.2819 50.6356 72.0449 50.7905C71.8125 50.9409 71.6348 51.1506 71.5117 51.4194C71.3932 51.6883 71.334 51.9959 71.334 52.3423H69.5225C69.5225 51.7544 69.6592 51.2189 69.9326 50.7358C70.2061 50.2482 70.598 49.8586 71.1084 49.5669C71.6188 49.2752 72.2249 49.1294 72.9268 49.1294C73.6104 49.1294 74.1891 49.2433 74.6631 49.4712C75.137 49.6945 75.4971 50.0135 75.7432 50.4282C75.9893 50.8429 76.1123 51.3374 76.1123 51.9116C76.1123 52.2306 76.0599 52.5451 75.9551 52.855C75.8503 53.1649 75.7021 53.4725 75.5107 53.7778C75.3239 54.0786 75.1006 54.384 74.8408 54.6938C74.5811 55.0037 74.2917 55.3205 73.9727 55.644L72.0312 57.8042H76.4609ZM84.3086 53.395V55.0698C84.3086 55.8354 84.2311 56.4894 84.0762 57.0317C83.9212 57.5741 83.6979 58.0184 83.4062 58.3647C83.1146 58.7065 82.766 58.9595 82.3604 59.1235C81.9548 59.283 81.5036 59.3628 81.0068 59.3628C80.6104 59.3628 80.2412 59.3127 79.8994 59.2124C79.5576 59.1076 79.25 58.9481 78.9766 58.7339C78.7077 58.5151 78.4753 58.2371 78.2793 57.8999C78.0879 57.5627 77.9398 57.1593 77.835 56.6899C77.7347 56.2205 77.6846 55.6805 77.6846 55.0698V53.395C77.6846 52.6294 77.762 51.9777 77.917 51.4399C78.0765 50.9022 78.3021 50.4624 78.5938 50.1206C78.8854 49.7788 79.234 49.5304 79.6396 49.3755C80.0452 49.216 80.4964 49.1362 80.9932 49.1362C81.3942 49.1362 81.7633 49.1864 82.1006 49.2866C82.4424 49.3869 82.7477 49.5441 83.0166 49.7583C83.29 49.9679 83.5225 50.2414 83.7139 50.5786C83.9053 50.9113 84.0511 51.3123 84.1514 51.7817C84.2562 52.2466 84.3086 52.7843 84.3086 53.395ZM82.5039 55.3159V53.1421C82.5039 52.7593 82.4811 52.4266 82.4355 52.144C82.3945 51.8569 82.333 51.6131 82.251 51.4126C82.1689 51.2121 82.0664 51.0503 81.9434 50.9272C81.8203 50.7996 81.679 50.7062 81.5195 50.647C81.36 50.5877 81.1846 50.5581 80.9932 50.5581C80.7562 50.5581 80.5443 50.606 80.3574 50.7017C80.1706 50.7928 80.0133 50.9386 79.8857 51.1392C79.7581 51.3397 79.6602 51.6063 79.5918 51.939C79.528 52.2671 79.4961 52.6681 79.4961 53.1421V55.3159C79.4961 55.6987 79.5166 56.0337 79.5576 56.3208C79.6032 56.6079 79.667 56.854 79.749 57.0591C79.8356 57.2642 79.9382 57.4328 80.0566 57.5649C80.1797 57.6925 80.321 57.7882 80.4805 57.8521C80.64 57.9113 80.8154 57.9409 81.0068 57.9409C81.2484 57.9409 81.4603 57.8931 81.6426 57.7974C81.8294 57.7017 81.9867 57.5513 82.1143 57.3462C82.2419 57.1366 82.3376 56.8654 82.4014 56.5327C82.4697 56.1955 82.5039 55.7899 82.5039 55.3159ZM92.3066 53.395V55.0698C92.3066 55.8354 92.2292 56.4894 92.0742 57.0317C91.9193 57.5741 91.696 58.0184 91.4043 58.3647C91.1126 58.7065 90.764 58.9595 90.3584 59.1235C89.9528 59.283 89.5016 59.3628 89.0049 59.3628C88.6084 59.3628 88.2393 59.3127 87.8975 59.2124C87.5557 59.1076 87.248 58.9481 86.9746 58.7339C86.7057 58.5151 86.4733 58.2371 86.2773 57.8999C86.0859 57.5627 85.9378 57.1593 85.833 56.6899C85.7327 56.2205 85.6826 55.6805 85.6826 55.0698V53.395C85.6826 52.6294 85.7601 51.9777 85.915 51.4399C86.0745 50.9022 86.3001 50.4624 86.5918 50.1206C86.8835 49.7788 87.2321 49.5304 87.6377 49.3755C88.0433 49.216 88.4945 49.1362 88.9912 49.1362C89.3923 49.1362 89.7614 49.1864 90.0986 49.2866C90.4404 49.3869 90.7458 49.5441 91.0146 49.7583C91.2881 49.9679 91.5205 50.2414 91.7119 50.5786C91.9033 50.9113 92.0492 51.3123 92.1494 51.7817C92.2542 52.2466 92.3066 52.7843 92.3066 53.395ZM90.502 55.3159V53.1421C90.502 52.7593 90.4792 52.4266 90.4336 52.144C90.3926 51.8569 90.3311 51.6131 90.249 51.4126C90.167 51.2121 90.0645 51.0503 89.9414 50.9272C89.8184 50.7996 89.6771 50.7062 89.5176 50.647C89.3581 50.5877 89.1826 50.5581 88.9912 50.5581C88.7542 50.5581 88.5423 50.606 88.3555 50.7017C88.1686 50.7928 88.0114 50.9386 87.8838 51.1392C87.7562 51.3397 87.6582 51.6063 87.5898 51.939C87.526 52.2671 87.4941 52.6681 87.4941 53.1421V55.3159C87.4941 55.6987 87.5146 56.0337 87.5557 56.3208C87.6012 56.6079 87.665 56.854 87.7471 57.0591C87.8337 57.2642 87.9362 57.4328 88.0547 57.5649C88.1777 57.6925 88.319 57.7882 88.4785 57.8521C88.638 57.9113 88.8135 57.9409 89.0049 57.9409C89.2464 57.9409 89.4583 57.8931 89.6406 57.7974C89.8275 57.7017 89.9847 57.5513 90.1123 57.3462C90.2399 57.1366 90.3356 56.8654 90.3994 56.5327C90.4678 56.1955 90.502 55.7899 90.502 55.3159Z" fill="#121212"/>
<path d="M217.632 55.5962V57.0181H210.461L210.386 55.9243L214.604 49.2729H216.046L214.487 51.9185L212.225 55.5962H217.632ZM216.449 49.2729V59.2261H214.638V49.2729H216.449ZM220.51 54.646L219.067 54.2974L219.621 49.2729H225.097V50.77H221.118L220.858 53.0942C221 53.0076 221.205 52.9211 221.474 52.8345C221.747 52.7433 222.055 52.6978 222.396 52.6978C222.87 52.6978 223.294 52.7752 223.668 52.9302C224.042 53.0806 224.358 53.2993 224.618 53.5864C224.882 53.8735 225.081 54.2244 225.213 54.6392C225.35 55.0493 225.418 55.5142 225.418 56.0337C225.418 56.4894 225.35 56.9178 225.213 57.3188C225.081 57.7153 224.878 58.0685 224.604 58.3784C224.331 58.6838 223.987 58.9253 223.572 59.103C223.158 59.2762 222.67 59.3628 222.109 59.3628C221.686 59.3628 221.278 59.3013 220.886 59.1782C220.498 59.0506 220.15 58.866 219.84 58.6245C219.53 58.3784 219.282 58.0776 219.095 57.7222C218.912 57.3667 218.812 56.9588 218.794 56.4985H220.578C220.61 56.8039 220.692 57.0636 220.824 57.2778C220.956 57.492 221.13 57.6561 221.344 57.77C221.562 57.884 221.815 57.9409 222.103 57.9409C222.362 57.9409 222.586 57.8931 222.772 57.7974C222.964 57.6971 223.121 57.5581 223.244 57.3804C223.367 57.2026 223.458 56.993 223.518 56.7515C223.577 56.5099 223.606 56.2456 223.606 55.9585C223.606 55.6805 223.572 55.4276 223.504 55.1997C223.436 54.9673 223.331 54.7668 223.189 54.5981C223.048 54.4295 222.87 54.2996 222.656 54.2085C222.447 54.1174 222.201 54.0718 221.918 54.0718C221.54 54.0718 221.248 54.1287 221.043 54.2427C220.842 54.3566 220.665 54.491 220.51 54.646ZM233.307 53.395V55.0698C233.307 55.8354 233.229 56.4894 233.074 57.0317C232.919 57.5741 232.696 58.0184 232.404 58.3647C232.113 58.7065 231.764 58.9595 231.358 59.1235C230.953 59.283 230.502 59.3628 230.005 59.3628C229.608 59.3628 229.239 59.3127 228.897 59.2124C228.556 59.1076 228.248 58.9481 227.975 58.7339C227.706 58.5151 227.473 58.2371 227.277 57.8999C227.086 57.5627 226.938 57.1593 226.833 56.6899C226.733 56.2205 226.683 55.6805 226.683 55.0698V53.395C226.683 52.6294 226.76 51.9777 226.915 51.4399C227.075 50.9022 227.3 50.4624 227.592 50.1206C227.883 49.7788 228.232 49.5304 228.638 49.3755C229.043 49.216 229.494 49.1362 229.991 49.1362C230.392 49.1362 230.761 49.1864 231.099 49.2866C231.44 49.3869 231.746 49.5441 232.015 49.7583C232.288 49.9679 232.521 50.2414 232.712 50.5786C232.903 50.9113 233.049 51.3123 233.149 51.7817C233.254 52.2466 233.307 52.7843 233.307 53.395ZM231.502 55.3159V53.1421C231.502 52.7593 231.479 52.4266 231.434 52.144C231.393 51.8569 231.331 51.6131 231.249 51.4126C231.167 51.2121 231.064 51.0503 230.941 50.9272C230.818 50.7996 230.677 50.7062 230.518 50.647C230.358 50.5877 230.183 50.5581 229.991 50.5581C229.754 50.5581 229.542 50.606 229.355 50.7017C229.169 50.7928 229.011 50.9386 228.884 51.1392C228.756 51.3397 228.658 51.6063 228.59 51.939C228.526 52.2671 228.494 52.6681 228.494 53.1421V55.3159C228.494 55.6987 228.515 56.0337 228.556 56.3208C228.601 56.6079 228.665 56.854 228.747 57.0591C228.834 57.2642 228.936 57.4328 229.055 57.5649C229.178 57.6925 229.319 57.7882 229.479 57.8521C229.638 57.9113 229.813 57.9409 230.005 57.9409C230.246 57.9409 230.458 57.8931 230.641 57.7974C230.827 57.7017 230.985 57.5513 231.112 57.3462C231.24 57.1366 231.336 56.8654 231.399 56.5327C231.468 56.1955 231.502 55.7899 231.502 55.3159Z" fill="#121212"/>
<path d="M338.37 49.2456V59.2261H336.559V51.3579L334.159 52.1509V50.688L338.165 49.2456H338.37ZM348.31 53.395V55.0698C348.31 55.8354 348.232 56.4894 348.077 57.0317C347.922 57.5741 347.699 58.0184 347.407 58.3647C347.116 58.7065 346.767 58.9595 346.361 59.1235C345.956 59.283 345.505 59.3628 345.008 59.3628C344.611 59.3628 344.242 59.3127 343.9 59.2124C343.559 59.1076 343.251 58.9481 342.978 58.7339C342.709 58.5151 342.476 58.2371 342.28 57.8999C342.089 57.5627 341.941 57.1593 341.836 56.6899C341.736 56.2205 341.686 55.6805 341.686 55.0698V53.395C341.686 52.6294 341.763 51.9777 341.918 51.4399C342.077 50.9022 342.303 50.4624 342.595 50.1206C342.886 49.7788 343.235 49.5304 343.641 49.3755C344.046 49.216 344.497 49.1362 344.994 49.1362C345.395 49.1362 345.764 49.1864 346.102 49.2866C346.443 49.3869 346.749 49.5441 347.018 49.7583C347.291 49.9679 347.523 50.2414 347.715 50.5786C347.906 50.9113 348.052 51.3123 348.152 51.7817C348.257 52.2466 348.31 52.7843 348.31 53.395ZM346.505 55.3159V53.1421C346.505 52.7593 346.482 52.4266 346.437 52.144C346.396 51.8569 346.334 51.6131 346.252 51.4126C346.17 51.2121 346.067 51.0503 345.944 50.9272C345.821 50.7996 345.68 50.7062 345.521 50.647C345.361 50.5877 345.186 50.5581 344.994 50.5581C344.757 50.5581 344.545 50.606 344.358 50.7017C344.172 50.7928 344.014 50.9386 343.887 51.1392C343.759 51.3397 343.661 51.6063 343.593 51.939C343.529 52.2671 343.497 52.6681 343.497 53.1421V55.3159C343.497 55.6987 343.518 56.0337 343.559 56.3208C343.604 56.6079 343.668 56.854 343.75 57.0591C343.837 57.2642 343.939 57.4328 344.058 57.5649C344.181 57.6925 344.322 57.7882 344.481 57.8521C344.641 57.9113 344.816 57.9409 345.008 57.9409C345.249 57.9409 345.461 57.8931 345.644 57.7974C345.83 57.7017 345.988 57.5513 346.115 57.3462C346.243 57.1366 346.339 56.8654 346.402 56.5327C346.471 56.1955 346.505 55.7899 346.505 55.3159ZM356.308 53.395V55.0698C356.308 55.8354 356.23 56.4894 356.075 57.0317C355.92 57.5741 355.697 58.0184 355.405 58.3647C355.114 58.7065 354.765 58.9595 354.359 59.1235C353.954 59.283 353.503 59.3628 353.006 59.3628C352.609 59.3628 352.24 59.3127 351.898 59.2124C351.557 59.1076 351.249 58.9481 350.976 58.7339C350.707 58.5151 350.474 58.2371 350.278 57.8999C350.087 57.5627 349.939 57.1593 349.834 56.6899C349.734 56.2205 349.684 55.6805 349.684 55.0698V53.395C349.684 52.6294 349.761 51.9777 349.916 51.4399C350.076 50.9022 350.301 50.4624 350.593 50.1206C350.884 49.7788 351.233 49.5304 351.639 49.3755C352.044 49.216 352.495 49.1362 352.992 49.1362C353.393 49.1362 353.762 49.1864 354.1 49.2866C354.441 49.3869 354.747 49.5441 355.016 49.7583C355.289 49.9679 355.521 50.2414 355.713 50.5786C355.904 50.9113 356.05 51.3123 356.15 51.7817C356.255 52.2466 356.308 52.7843 356.308 53.395ZM354.503 55.3159V53.1421C354.503 52.7593 354.48 52.4266 354.435 52.144C354.394 51.8569 354.332 51.6131 354.25 51.4126C354.168 51.2121 354.065 51.0503 353.942 50.9272C353.819 50.7996 353.678 50.7062 353.519 50.647C353.359 50.5877 353.184 50.5581 352.992 50.5581C352.755 50.5581 352.543 50.606 352.356 50.7017C352.17 50.7928 352.012 50.9386 351.885 51.1392C351.757 51.3397 351.659 51.6063 351.591 51.939C351.527 52.2671 351.495 52.6681 351.495 53.1421V55.3159C351.495 55.6987 351.516 56.0337 351.557 56.3208C351.602 56.6079 351.666 56.854 351.748 57.0591C351.835 57.2642 351.937 57.4328 352.056 57.5649C352.179 57.6925 352.32 57.7882 352.479 57.8521C352.639 57.9113 352.814 57.9409 353.006 57.9409C353.247 57.9409 353.459 57.8931 353.642 57.7974C353.828 57.7017 353.986 57.5513 354.113 57.3462C354.241 57.1366 354.337 56.8654 354.4 56.5327C354.469 56.1955 354.503 55.7899 354.503 55.3159ZM364.306 53.395V55.0698C364.306 55.8354 364.228 56.4894 364.073 57.0317C363.918 57.5741 363.695 58.0184 363.403 58.3647C363.112 58.7065 362.763 58.9595 362.357 59.1235C361.952 59.283 361.501 59.3628 361.004 59.3628C360.607 59.3628 360.238 59.3127 359.896 59.2124C359.555 59.1076 359.247 58.9481 358.974 58.7339C358.705 58.5151 358.472 58.2371 358.276 57.8999C358.085 57.5627 357.937 57.1593 357.832 56.6899C357.732 56.2205 357.682 55.6805 357.682 55.0698V53.395C357.682 52.6294 357.759 51.9777 357.914 51.4399C358.074 50.9022 358.299 50.4624 358.591 50.1206C358.882 49.7788 359.231 49.5304 359.637 49.3755C360.042 49.216 360.493 49.1362 360.99 49.1362C361.391 49.1362 361.76 49.1864 362.098 49.2866C362.439 49.3869 362.745 49.5441 363.014 49.7583C363.287 49.9679 363.52 50.2414 363.711 50.5786C363.902 50.9113 364.048 51.3123 364.148 51.7817C364.253 52.2466 364.306 52.7843 364.306 53.395ZM362.501 55.3159V53.1421C362.501 52.7593 362.478 52.4266 362.433 52.144C362.392 51.8569 362.33 51.6131 362.248 51.4126C362.166 51.2121 362.063 51.0503 361.94 50.9272C361.817 50.7996 361.676 50.7062 361.517 50.647C361.357 50.5877 361.182 50.5581 360.99 50.5581C360.753 50.5581 360.541 50.606 360.354 50.7017C360.168 50.7928 360.01 50.9386 359.883 51.1392C359.755 51.3397 359.657 51.6063 359.589 51.939C359.525 52.2671 359.493 52.6681 359.493 53.1421V55.3159C359.493 55.6987 359.514 56.0337 359.555 56.3208C359.6 56.6079 359.664 56.854 359.746 57.0591C359.833 57.2642 359.935 57.4328 360.054 57.5649C360.177 57.6925 360.318 57.7882 360.478 57.8521C360.637 57.9113 360.812 57.9409 361.004 57.9409C361.245 57.9409 361.457 57.8931 361.64 57.7974C361.826 57.7017 361.984 57.5513 362.111 57.3462C362.239 57.1366 362.335 56.8654 362.398 56.5327C362.467 56.1955 362.501 55.7899 362.501 55.3159Z" fill="#858C94"/>
</svg>
