<svg width="24" height="25" viewBox="0 0 24 25" fill="none" xmlns="http://www.w3.org/2000/svg">
<path opacity="0.4" fill-rule="evenodd" clip-rule="evenodd" d="M6.476 15.1621C7.661 14.6061 8.619 14.9501 9.546 15.2841C10.245 15.5361 10.969 15.7961 11.97 15.7961C12.748 15.7961 13.207 15.1091 13.87 13.9751C14.53 12.8481 15.351 11.4451 17.009 11.4451C19.313 11.4451 20.741 12.8981 21.709 13.9691C21.734 13.5111 21.75 13.0371 21.75 12.5361C21.75 5.33713 19.198 2.78613 12 2.78613C4.802 2.78613 2.25 5.33713 2.25 12.5361C2.25 15.2211 2.606 17.2591 3.426 18.7601C3.942 17.7431 5.064 15.8251 6.476 15.1621Z" fill="#6571FF"/>
<path fill-rule="evenodd" clip-rule="evenodd" d="M21.2318 15.6683C21.0848 15.5173 20.9288 15.3443 20.7618 15.1573C19.8778 14.1723 18.7768 12.9453 17.0088 12.9453C16.2648 12.9453 15.8158 13.6213 15.1658 14.7333C14.4968 15.8763 13.6658 17.2973 11.9698 17.2973C10.7068 17.2973 9.7818 16.9643 9.0378 16.6953C8.1618 16.3793 7.7098 16.2393 7.1148 16.5203C5.9828 17.0523 4.8468 19.1983 4.5048 19.9803C4.4848 20.0283 4.4538 20.0673 4.4248 20.1093C5.9618 21.6483 8.3998 22.2863 12.0008 22.2863C17.9598 22.2863 20.7278 20.5283 21.5068 15.8423C21.4058 15.8043 21.3118 15.7503 21.2318 15.6683Z" fill="#6571FF"/>
<path d="M11.0991 9.31959C11.0991 8.07359 10.0841 7.05859 8.83815 7.05859C7.59215 7.05859 6.57715 8.07359 6.57715 9.31959C6.57715 10.5656 7.59215 11.5796 8.83815 11.5796C10.0841 11.5796 11.0991 10.5656 11.0991 9.31959Z" fill="#6571FF"/>
</svg>
