<svg width="33" height="32" viewBox="0 0 33 32" fill="none" xmlns="http://www.w3.org/2000/svg">
<g clip-path="url(#clip0_141_56658)">
<path d="M32.6904 7.51756H0.302734V1.00277C0.302734 0.694391 0.55279 0.444336 0.861168 0.444336H32.132C32.4404 0.444336 32.6904 0.694391 32.6904 1.00277L32.6904 7.51756Z" fill="#FAB446"/>
<path d="M32.132 21.662H0.861168C0.55279 21.662 0.302734 21.412 0.302734 21.1036V14.5889H32.6904V21.1036C32.6904 21.412 32.4403 21.662 32.132 21.662Z" fill="#73AF00"/>
<path d="M32.6904 7.51758H0.302734V14.5904H32.6904V7.51758Z" fill="#F5F5F5"/>
<path d="M16.4975 14.0556C14.8425 14.0556 13.4961 12.7092 13.4961 11.0542C13.4961 9.3991 14.8425 8.05273 16.4975 8.05273C18.1526 8.05273 19.4989 9.3991 19.4989 11.0542C19.4989 12.7092 18.1526 14.0556 16.4975 14.0556ZM16.4975 8.61111C15.1503 8.61111 14.0545 9.70691 14.0545 11.0542C14.0545 12.4014 15.1503 13.4972 16.4975 13.4972C17.8448 13.4972 18.9406 12.4014 18.9406 11.0542C18.9406 9.70691 17.8448 8.61111 16.4975 8.61111Z" fill="#41479B"/>
<path d="M16.4969 11.3952C16.6851 11.3952 16.8376 11.2427 16.8376 11.0546C16.8376 10.8664 16.6851 10.7139 16.4969 10.7139C16.3088 10.7139 16.1562 10.8664 16.1562 11.0546C16.1562 11.2427 16.3088 11.3952 16.4969 11.3952Z" fill="#41479B"/>
<path d="M16.4995 11.1054L15.6348 11.1927L13.7773 11.1054V11.0033L15.6348 10.916L16.4995 11.0033V11.1054Z" fill="#41479B"/>
<path d="M16.4961 11.1054L17.3608 11.1927L19.2183 11.1054V11.0033L17.3608 10.916L16.4961 11.0033V11.1054Z" fill="#41479B"/>
<path d="M16.4447 11.0542L16.3574 10.1895L16.4447 8.33203H16.5468L16.6341 10.1895L16.5468 11.0542H16.4447Z" fill="#41479B"/>
<path d="M16.4447 11.0537L16.3574 11.9184L16.4447 13.7759H16.5468L16.6341 11.9184L16.5468 11.0537H16.4447Z" fill="#41479B"/>
<path d="M16.462 11.0898L15.7888 10.5402L14.5371 9.16495L14.6093 9.09277L15.9845 10.3445L16.5341 11.0177L16.462 11.0898Z" fill="#41479B"/>
<path d="M16.4609 11.0907L17.0106 11.7639L18.3858 13.0156L18.458 12.9434L17.2062 11.5682L16.5331 11.0186L16.4609 11.0907Z" fill="#41479B"/>
<path d="M16.4609 11.0177L17.0106 10.3445L18.3858 9.09277L18.458 9.16495L17.2062 10.5402L16.5331 11.0898L16.4609 11.0177Z" fill="#41479B"/>
<path d="M16.462 11.0186L15.7888 11.5682L14.5371 12.9434L14.6093 13.0156L15.9845 11.7639L16.5341 11.0907L16.462 11.0186Z" fill="#41479B"/>
<path d="M16.515 11.1012L15.7495 11.5128L14 12.1429L13.9609 12.0486L15.6436 11.2571L16.4759 11.0068L16.515 11.1012Z" fill="#41479B"/>
<path d="M16.5176 11.1019L17.3499 10.8516L19.0326 10.0601L18.9935 9.96582L17.2441 10.596L16.4785 11.0075L16.5176 11.1019Z" fill="#41479B"/>
<path d="M16.4499 11.0736L16.0384 10.3081L15.4082 8.55862L15.5025 8.51953L16.294 10.2022L16.5443 11.0345L16.4499 11.0736Z" fill="#41479B"/>
<path d="M16.4492 11.0742L16.6995 11.9065L17.491 13.5892L17.5853 13.5501L16.9552 11.8007L16.5436 11.0352L16.4492 11.0742Z" fill="#41479B"/>
<path d="M16.4759 11.1019L15.6436 10.8516L13.9609 10.0601L14 9.96582L15.7495 10.596L16.515 11.0075L16.4759 11.1019Z" fill="#41479B"/>
<path d="M16.4785 11.1012L17.2441 11.5128L18.9935 12.1429L19.0326 12.0486L17.3499 11.2571L16.5176 11.0068L16.4785 11.1012Z" fill="#41479B"/>
<path d="M16.4492 11.0345L16.6995 10.2022L17.491 8.51953L17.5853 8.55862L16.9552 10.3081L16.5436 11.0736L16.4492 11.0345Z" fill="#41479B"/>
<path d="M16.4499 11.0352L16.0384 11.8007L15.4082 13.5501L15.5025 13.5892L16.294 11.9065L16.5443 11.0742L16.4499 11.0352Z" fill="#41479B"/>
<path d="M16.4961 11.5117C16.7496 11.5117 16.9551 11.3062 16.9551 11.0527C16.9551 10.7992 16.7496 10.5938 16.4961 10.5938C16.2426 10.5938 16.0371 10.7992 16.0371 11.0527C16.0371 11.3062 16.2426 11.5117 16.4961 11.5117Z" fill="#F5F5F5"/>
<path d="M16.4982 11.3305C16.6504 11.3305 16.7738 11.2071 16.7738 11.0549C16.7738 10.9027 16.6504 10.7793 16.4982 10.7793C16.346 10.7793 16.2227 10.9027 16.2227 11.0549C16.2227 11.2071 16.346 11.3305 16.4982 11.3305Z" fill="#41479B"/>
</g>
<defs>
<clipPath id="clip0_141_56658">
<rect width="32.3877" height="31.74" fill="white" transform="translate(0 0.12793)"/>
</clipPath>
</defs>
</svg>
