<svg width="24" height="24" viewBox="0 0 24 24" fill="none" xmlns="http://www.w3.org/2000/svg">
<path opacity="0.4" fill-rule="evenodd" clip-rule="evenodd" d="M19.25 6.158C18.887 5.838 18.474 5.476 17.982 5.021C17.759 4.841 17.515 4.635 17.256 4.417C15.796 3.186 13.796 1.5 11.973 1.5C10.171 1.5 8.30004 3.092 6.79704 4.371C6.51904 4.607 6.25904 4.829 5.99404 5.044C5.52804 5.476 5.11504 5.839 4.75104 6.16C2.36404 8.261 1.91504 8.812 1.91504 13.713C1.91504 22.5 4.45604 22.5 12.001 22.5C19.545 22.5 22.087 22.5 22.087 13.713C22.087 8.811 21.638 8.26 19.25 6.158Z" fill="#6571FF"/>
<path d="M9.09375 16.8848H14.9088C15.3228 16.8848 15.6588 16.5488 15.6588 16.1348C15.6588 15.7208 15.3228 15.3848 14.9088 15.3848H9.09375C8.67975 15.3848 8.34375 15.7208 8.34375 16.1348C8.34375 16.5488 8.67975 16.8848 9.09375 16.8848Z" fill="#6571FF"/>
</svg>
