<svg width="25" height="24" viewBox="0 0 25 24" fill="none" xmlns="http://www.w3.org/2000/svg">
<path fill-rule="evenodd" clip-rule="evenodd" d="M9.48828 10.71C9.48828 8.91469 10.9431 7.45947 12.7378 7.45947C14.5333 7.45947 15.9883 8.9145 15.9883 10.71C15.9883 12.5046 14.5331 13.9595 12.7378 13.9595C10.9433 13.9595 9.48828 12.5044 9.48828 10.71ZM12.7378 8.95947C11.7719 8.95947 10.9883 9.74272 10.9883 10.71C10.9883 11.676 11.7717 12.4595 12.7378 12.4595C13.705 12.4595 14.4883 11.6758 14.4883 10.71C14.4883 9.74292 13.7048 8.95947 12.7378 8.95947Z" fill="black"/>
<path fill-rule="evenodd" clip-rule="evenodd" d="M12.728 3.74951C9.00915 3.74951 5.97852 6.80681 5.97852 10.5981C5.97852 13.0721 7.04625 15.5142 8.48185 17.3462C9.19686 18.2587 9.98643 18.9978 10.7481 19.503C11.5213 20.0158 12.2071 20.2495 12.728 20.2495C13.2492 20.2495 13.9353 20.0157 14.7085 19.503C15.4704 18.9978 16.26 18.2587 16.9751 17.3462C18.4108 15.5142 19.4785 13.0721 19.4785 10.5981C19.4785 6.80694 16.447 3.74951 12.728 3.74951ZM4.47852 10.5981C4.47852 5.99714 8.16209 2.24951 12.728 2.24951C17.2938 2.24951 20.9785 5.99701 20.9785 10.5981C20.9785 13.4842 19.7455 16.2428 18.1557 18.2715C17.358 19.2893 16.4537 20.1455 15.5375 20.7531C14.6326 21.3531 13.6563 21.7495 12.728 21.7495C11.7999 21.7495 10.8238 21.3531 9.9191 20.7531C9.00297 20.1455 8.09878 19.2893 7.30117 18.2714C5.71153 16.2428 4.47852 13.4842 4.47852 10.5981Z" fill="black"/>
</svg>
