<svg width="21" height="21" viewBox="0 0 21 21" fill="none" xmlns="http://www.w3.org/2000/svg">
<path fill-rule="evenodd" clip-rule="evenodd" d="M10.5 21C16.299 21 21 16.299 21 10.5C21 4.70101 16.299 0 10.5 0C4.70101 0 0 4.70101 0 10.5C0 16.299 4.70101 21 10.5 21Z" fill="#C0C0C2"/>
<path fill-rule="evenodd" clip-rule="evenodd" d="M10.5 4C7.49429 4.07306 5.07556 6.41183 5 9.31818C5.05099 10.1775 5.29609 11.0155 5.71806 11.7734L5.76083 11.8473C9.08528 17 10.0783 17 10.5 17C11.16 17 11.8719 16.5509 13.5556 14.2611C14.4386 13.0793 15.1964 11.8975 15.2269 11.8443L15.2697 11.7734C15.6959 11.0165 15.9452 10.1784 16 9.31818C15.9244 6.41183 13.5057 4.07306 10.5 4ZM14.4722 11.3864C14.4722 11.3864 11.4167 16.1136 10.5 16.1136C9.58333 16.1136 6.52778 11.3864 6.52778 11.3864C6.17255 10.7475 5.9641 10.0421 5.91667 9.31818C5.91667 6.87056 7.9687 4.88636 10.5 4.88636C13.0313 4.88636 15.0833 6.87056 15.0833 9.31818C15.0331 10.0427 14.8215 10.7482 14.4631 11.3864H14.4722Z" fill="white"/>
<path fill-rule="evenodd" clip-rule="evenodd" d="M10.5 7C9.11929 7 8 8.11929 8 9.5C8 10.8807 9.11929 12 10.5 12C11.8807 12 13 10.8807 13 9.5C13 8.11929 11.8807 7 10.5 7ZM10.5 11.0625C9.63706 11.0625 8.9375 10.3629 8.9375 9.5C8.9375 8.63706 9.63706 7.9375 10.5 7.9375C11.3629 7.9375 12.0625 8.63706 12.0625 9.5C12.0625 10.3629 11.3629 11.0625 10.5 11.0625Z" fill="white"/>
</svg>
