<svg width="18" height="20" viewBox="0 0 18 20" fill="none" xmlns="http://www.w3.org/2000/svg">
<path fill-rule="evenodd" clip-rule="evenodd" d="M5.75977 8.71145C5.75977 6.91616 7.21459 5.46094 9.00926 5.46094C10.8047 5.46094 12.2598 6.91596 12.2598 8.71145C12.2598 10.5061 10.8045 11.9609 9.00926 11.9609C7.21479 11.9609 5.75977 10.5059 5.75977 8.71145ZM9.00926 6.96094C8.04341 6.96094 7.25977 7.74419 7.25977 8.71145C7.25977 9.67749 8.04322 10.4609 9.00926 10.4609C9.97651 10.4609 10.7598 9.67729 10.7598 8.71145C10.7598 7.74439 9.97632 6.96094 9.00926 6.96094Z" fill="black"/>
<path fill-rule="evenodd" clip-rule="evenodd" d="M8.99951 1.75098C5.28063 1.75098 2.25 4.80828 2.25 8.59961C2.25 11.0736 3.31773 13.5157 4.75334 15.3477C5.46835 16.2602 6.25791 16.9993 7.01963 17.5045C7.79276 18.0172 8.47861 18.251 8.99951 18.251C9.52071 18.251 10.2068 18.0172 10.98 17.5045C11.7419 16.9993 12.5315 16.2601 13.2466 15.3477C14.6823 13.5156 15.75 11.0736 15.75 8.59961C15.75 4.8084 12.7185 1.75098 8.99951 1.75098ZM0.75 8.59961C0.75 3.99861 4.43357 0.250977 8.99951 0.250977C13.5653 0.250977 17.25 3.99848 17.25 8.59961C17.25 11.4857 16.017 14.2443 14.4272 16.2729C13.6295 17.2908 12.7252 18.147 11.809 18.7546C10.9041 19.3546 9.92782 19.751 8.99951 19.751C8.0714 19.751 7.0953 19.3546 6.19058 18.7546C5.27446 18.147 4.37027 17.2908 3.57265 16.2729C1.98301 14.2443 0.75 11.4857 0.75 8.59961Z" fill="black"/>
</svg>
