<svg width="24" height="24" viewBox="0 0 24 24" fill="none" xmlns="http://www.w3.org/2000/svg">
<path fill-rule="evenodd" clip-rule="evenodd" d="M9 12.1201C9 11.7059 9.33579 11.3701 9.75 11.3701H21.791C22.2052 11.3701 22.541 11.7059 22.541 12.1201C22.541 12.5343 22.2052 12.8701 21.791 12.8701H9.75C9.33579 12.8701 9 12.5343 9 12.1201Z" fill="black"/>
<path fill-rule="evenodd" clip-rule="evenodd" d="M18.3328 8.67486C18.6251 8.38137 19.1 8.38039 19.3935 8.67268L22.3215 11.5887C22.4628 11.7294 22.5423 11.9207 22.5423 12.1201C22.5423 12.3195 22.4628 12.5108 22.3215 12.6515L19.3935 15.5675C19.1 15.8598 18.6251 15.8588 18.3328 15.5653C18.0405 15.2718 18.0415 14.797 18.335 14.5047L20.7294 12.1201L18.335 9.73552C18.0415 9.44323 18.0405 8.96836 18.3328 8.67486Z" fill="black"/>
<path fill-rule="evenodd" clip-rule="evenodd" d="M14.2888 4.45009C15.0655 5.02564 15.4538 5.96655 15.6135 7.69884C15.6515 8.11131 16.0167 8.41486 16.4291 8.37683C16.8416 8.33881 17.1452 7.97362 17.1071 7.56116C16.9368 5.71345 16.4901 4.21436 15.1818 3.24491C13.9275 2.31546 12.0377 2 9.3603 2C5.81047 2 3.62793 2.55654 2.50787 4.37994C1.97403 5.249 1.73812 6.3253 1.62348 7.55739C1.50929 8.78465 1.5093 10.259 1.5093 11.9684V12.0316C1.5093 13.741 1.50929 15.2154 1.62348 16.4426C1.73812 17.6747 1.97403 18.751 2.50787 19.6201C3.62793 21.4435 5.81047 22 9.3603 22C12.0377 22 13.9275 21.6845 15.1818 20.7551C16.4901 19.7856 16.9368 18.2866 17.1071 16.4388C17.1452 16.0264 16.8416 15.6612 16.4291 15.6232C16.0167 15.5851 15.6515 15.8887 15.6135 16.3012C15.4538 18.0335 15.0655 18.9744 14.2888 19.5499C13.4581 20.1655 12.0129 20.5 9.3603 20.5C5.80913 20.5 4.44117 19.9015 3.78599 18.8349C3.4322 18.259 3.2243 17.4565 3.11703 16.3036C3.01001 15.1535 3.0093 13.7472 3.0093 12C3.0093 10.2528 3.01001 8.84654 3.11703 7.69636C3.2243 6.54345 3.4322 5.741 3.78599 5.16506C4.44117 4.09846 5.80913 3.5 9.3603 3.5C12.0129 3.5 13.4581 3.83454 14.2888 4.45009Z" fill="black"/>
</svg>
