<svg width="24" height="25" viewBox="0 0 24 25" fill="none" xmlns="http://www.w3.org/2000/svg">
<g clip-path="url(#clip0_1304_10292)">
<path fill-rule="evenodd" clip-rule="evenodd" d="M15.3334 7.52485C14.3467 6.86557 13.1867 6.51367 12 6.51367V0.513672C14.3734 0.513672 16.6934 1.21746 18.6668 2.53604C20.6402 3.85461 22.1783 5.72876 23.0866 7.92145C23.9948 10.1142 24.2324 12.527 23.7694 14.8548C23.3064 17.1825 22.1635 19.3207 20.4853 20.9989C18.8071 22.6772 16.6688 23.8201 14.3411 24.2831C12.0133 24.7461 9.60048 24.5085 7.40778 23.6002C5.21509 22.692 3.34094 21.1539 2.02237 19.1805C0.703788 17.2071 0 14.887 0 12.5137H6C6 13.7004 6.3519 14.8604 7.01118 15.8471C7.67046 16.8338 8.60754 17.6028 9.70392 18.057C10.8002 18.5111 12.0067 18.6299 13.1705 18.3984C14.3344 18.1669 15.4035 17.5954 16.2427 16.7563C17.0818 15.9172 17.6532 14.8481 17.8847 13.6842C18.1162 12.5203 17.9974 11.3139 17.5433 10.2176C17.0891 9.12121 16.3201 8.18413 15.3334 7.52485Z" fill="white"/>
<path fill-rule="evenodd" clip-rule="evenodd" d="M6 0.513674C6 1.30161 5.84481 2.08182 5.54328 2.80977C5.24175 3.53773 4.79979 4.19916 4.24264 4.75632C3.68549 5.31347 3.02406 5.75542 2.2961 6.05695C1.56814 6.35848 0.787929 6.51367 2.62266e-07 6.51367L0 12.5137C1.57586 12.5137 3.13629 12.2033 4.5922 11.6002C6.04812 10.9972 7.371 10.1133 8.48526 8.99893C9.59958 7.88467 10.4835 6.56179 11.0866 5.10588C11.6896 3.64996 12 2.08953 12 0.513672L6 0.513674Z" fill="white"/>
</g>
<defs>
<clipPath id="clip0_1304_10292">
<rect width="24" height="24" fill="white" transform="translate(0 0.513672)"/>
</clipPath>
</defs>
</svg>
