<svg width="30" height="30" viewBox="0 0 30 30" fill="none" xmlns="http://www.w3.org/2000/svg">
<path fill-rule="evenodd" clip-rule="evenodd" d="M9.17285 14.2301C9.17285 17.4109 11.7589 19.9895 14.949 19.9895C18.1391 19.9895 20.7251 17.4109 20.7251 14.2301C20.7214 11.0508 18.1375 8.47444 14.949 8.4707C11.7589 8.4707 9.17285 11.0493 9.17285 14.2301ZM14.9485 17.9563C12.8843 17.9563 11.211 16.2878 11.211 14.2296C11.211 12.1714 12.8843 10.5029 14.9485 10.5029C17.0127 10.5029 18.686 12.1714 18.686 14.2296C18.686 16.2878 17.0127 17.9563 14.9485 17.9563Z" fill="#1E2022"/>
<path fill-rule="evenodd" clip-rule="evenodd" d="M28.2011 13.2127H26.1081C25.6081 7.8495 21.3481 3.60185 15.9693 3.1033V1.01636C15.9693 0.455041 15.513 0 14.95 0C14.387 0 13.9307 0.455041 13.9307 1.01636V3.1033C8.55186 3.60185 4.29187 7.8495 3.79186 13.2127H1.01932C0.456364 13.2127 0 13.6678 0 14.2291C0 14.7904 0.456364 15.2455 1.01932 15.2455H3.79186C4.28931 20.6136 8.55369 24.8657 13.9375 25.3617C13.9375 25.3617 13.9375 25.3617 13.9375 25.4159V28.1262C13.9375 28.6875 14.3938 29.1425 14.9568 29.1425C15.5197 29.1425 15.9761 28.6875 15.9761 28.1262V25.4159C15.9761 25.4159 15.9761 25.4159 15.9761 25.3617C21.3546 24.8595 25.6117 20.609 26.1081 15.2455H28.2011C28.7641 15.2455 29.2205 14.7904 29.2205 14.2291C29.2205 13.6678 28.7641 13.2127 28.2011 13.2127ZM14.9504 23.3756C9.88379 23.3756 5.77651 19.2802 5.77651 14.2283C5.77651 9.17643 9.88379 5.08105 14.9504 5.08105C20.017 5.08105 24.1242 9.17643 24.1242 14.2283C24.1242 19.2802 20.017 23.3756 14.9504 23.3756Z" fill="#1E2022"/>
</svg>
