<svg width="54" height="38" viewBox="0 0 54 38" fill="none" xmlns="http://www.w3.org/2000/svg">
<rect x="1.1314" y="1.51617" width="52.08" height="35.8773" rx="6.36533" fill="white"/>
<rect x="1.1314" y="1.51617" width="52.08" height="35.8773" rx="6.36533" stroke="#F2F4F7" stroke-width="1.15733"/>
<path fill-rule="evenodd" clip-rule="evenodd" d="M33.8488 29.3769C39.6276 29.3769 44.3122 24.748 44.3122 19.0381C44.3122 13.3281 39.6276 8.69922 33.8488 8.69922C31.2589 8.69922 28.8888 9.62895 27.0617 11.1691C25.2346 9.62907 22.8646 8.69941 20.2749 8.69941C14.4961 8.69941 9.81152 13.3283 9.81152 19.0383C9.81152 24.7482 14.4961 29.3771 20.2749 29.3771C22.8647 29.3771 25.2348 28.4474 27.062 26.9073C28.8891 28.4472 31.2591 29.3769 33.8488 29.3769Z" fill="#ED0006"/>
<path fill-rule="evenodd" clip-rule="evenodd" d="M27.0615 26.9067C29.3114 25.0104 30.738 22.1886 30.738 19.0376C30.738 15.8865 29.3114 13.0648 27.0615 11.1684C28.8886 9.6284 31.2586 8.69873 33.8484 8.69873C39.6272 8.69873 44.3118 13.3276 44.3118 19.0376C44.3118 24.7476 39.6272 29.3764 33.8484 29.3764C31.2586 29.3764 28.8886 28.4467 27.0615 26.9067Z" fill="#F9A000"/>
<path fill-rule="evenodd" clip-rule="evenodd" d="M27.0612 26.9072C29.3111 25.0109 30.7377 22.1891 30.7377 19.0381C30.7377 15.8871 29.3111 13.0653 27.0612 11.1689C24.8114 13.0653 23.3848 15.8871 23.3848 19.0381C23.3848 22.1891 24.8114 25.0109 27.0612 26.9072Z" fill="#FF5E00"/>
</svg>
