<svg width="24" height="24" viewBox="0 0 24 24" fill="none" xmlns="http://www.w3.org/2000/svg">
<path fill-rule="evenodd" clip-rule="evenodd" d="M6.55988 4.39243C7.72133 2.89504 9.52115 1.7627 11.9958 1.7627C14.4701 1.7627 16.2699 2.89507 17.4314 4.3924C18.5747 5.86614 19.1068 7.69721 19.1068 9.18222C19.1068 9.60846 19.0938 9.9249 19.084 10.165C19.082 10.2144 19.0801 10.2605 19.0785 10.3037C19.0688 10.562 19.0708 10.6861 19.0906 10.809C19.1358 11.0886 19.2788 11.433 19.8502 12.6923C19.856 12.7049 19.8613 12.7177 19.8663 12.7306C20.2792 13.793 20.1868 14.7704 19.6958 15.5986C19.2273 16.389 18.4398 16.9709 17.5885 17.3956C15.8862 18.2448 13.6358 18.6103 11.9958 18.6103C10.3554 18.6103 8.10478 18.2448 6.40247 17.3956C5.5512 16.9709 4.76369 16.3889 4.29527 15.5985C3.80439 14.7702 3.71229 13.7928 4.12539 12.7304C4.13039 12.7176 4.13574 12.7049 4.14143 12.6923C4.71284 11.433 4.85586 11.0886 4.90103 10.809C4.9209 10.6861 4.92286 10.562 4.91319 10.3037C4.91158 10.2605 4.90969 10.2144 4.90767 10.165C4.89784 9.9249 4.88489 9.60846 4.88489 9.18222C4.88489 7.69729 5.41674 5.86622 6.55988 4.39243ZM7.74513 5.31177C6.81637 6.50917 6.38489 8.01287 6.38489 9.18222C6.38489 9.57532 6.39647 9.8593 6.40622 10.0984C6.40832 10.15 6.41034 10.1996 6.41214 10.2477C6.42209 10.5135 6.42733 10.7667 6.38183 11.0483C6.29732 11.5713 6.0404 12.1375 5.52643 13.2702L5.51641 13.2922C5.26752 13.945 5.34736 14.4316 5.58569 14.8338C5.8487 15.2776 6.35286 15.6946 7.07207 16.0534C8.5107 16.771 10.5163 17.1103 11.9958 17.1103C13.4749 17.1103 15.4802 16.771 16.9189 16.0534C17.6381 15.6946 18.1424 15.2776 18.4055 14.8337C18.644 14.4315 18.7239 13.9448 18.4752 13.2922L18.4652 13.2701C17.9513 12.1375 17.6944 11.5713 17.6098 11.0483C17.5643 10.7667 17.5696 10.5135 17.5795 10.2477C17.5813 10.1996 17.5834 10.15 17.5855 10.0984C17.5952 9.85931 17.6068 9.57532 17.6068 9.18222C17.6068 8.01295 17.1751 6.50925 16.2462 5.3118C15.3356 4.13794 13.9549 3.2627 11.9958 3.2627C10.0362 3.2627 8.65559 4.13797 7.74513 5.31177Z" fill="black"/>
<path fill-rule="evenodd" clip-rule="evenodd" d="M9.18495 19.9524C9.49387 19.6764 9.96799 19.7032 10.2439 20.0121C11.2495 21.1379 12.7467 21.1275 13.7458 20.0115C14.0221 19.7029 14.4962 19.6767 14.8048 19.9529C15.1134 20.2292 15.1396 20.7034 14.8634 21.012C13.2739 22.7874 10.733 22.8113 9.12523 21.0114C8.84929 20.7024 8.87603 20.2283 9.18495 19.9524Z" fill="black"/>
</svg>
