<svg width="27" height="27" viewBox="0 0 27 27" fill="none" xmlns="http://www.w3.org/2000/svg">
<path d="M25.7084 14.3249V12.6703L23.3279 12.1091C23.2495 11.5588 23.1251 11.0161 22.9561 10.4866L24.8512 8.94724L24.1325 7.45742L21.7447 7.98367C21.4354 7.52222 21.0882 7.08729 20.7068 6.68335L21.7593 4.47632L20.4648 3.44423L18.5406 4.95446C18.062 4.67265 17.5608 4.43128 17.042 4.23287L17.0231 1.78822L15.4093 1.41504L14.3321 3.61041C14.0551 3.58709 13.7781 3.57543 13.4997 3.57543C13.2213 3.57543 12.9443 3.58709 12.6673 3.61041L11.59 1.41504L9.9763 1.78385L9.95881 4.2285C9.43948 4.42661 8.93771 4.66799 8.45878 4.95009L6.53892 3.43986L5.24152 4.47632L6.28527 6.68627C5.90376 7.09063 5.55659 7.52606 5.24735 7.98804L2.85956 7.45742L2.14088 8.94724L4.03596 10.4866C3.86791 11.0162 3.74454 11.5589 3.66715 12.1091L1.29102 12.6703V14.3249L3.67152 14.8876C3.75027 15.4372 3.87411 15.9793 4.04179 16.5086L2.14672 18.0465L2.86539 19.5378L5.25464 19.0116C5.56353 19.4733 5.91073 19.9083 6.29256 20.3119L5.24007 22.5233L6.53892 23.5539L8.46316 22.0437C8.94152 22.3289 9.44335 22.5727 9.96318 22.7726L9.98067 25.2187L11.5944 25.586L12.6717 23.3994C12.9487 23.4213 13.2271 23.4329 13.5041 23.4329C13.781 23.4329 14.0595 23.4213 14.3364 23.3994L15.4137 25.586L17.0274 25.2187L17.0449 22.7726C17.5645 22.5721 18.0663 22.3283 18.545 22.0437L20.4677 23.5554L21.7622 22.5233L20.717 20.3119C21.0992 19.9083 21.4469 19.4733 21.7564 19.0116L24.1427 19.5393L24.8629 18.048L22.9678 16.5086C23.1366 15.9796 23.261 15.4373 23.3395 14.8876L25.7084 14.3249ZM13.4851 21.7769C11.85 21.7763 10.2518 21.2909 8.8926 20.382C7.5334 19.473 6.47427 18.1815 5.84914 16.6706C5.22401 15.1597 5.06097 13.4974 5.38064 11.8938C5.7003 10.2903 6.48831 8.81752 7.64502 7.66184C8.80172 6.50616 10.2752 5.71945 11.879 5.4012C13.4828 5.08295 15.145 5.24745 16.6553 5.87391C18.1657 6.50037 19.4563 7.56064 20.364 8.92064C21.2718 10.2806 21.7558 11.8793 21.7549 13.5144C21.7526 15.7063 20.8804 17.8077 19.3298 19.3569C17.7792 20.9061 15.677 21.7765 13.4851 21.7769Z" fill="#6571FF"/>
<path d="M18.5268 10.6279L15.6542 13.5005H17.8086C17.8086 15.8776 15.8768 17.8095 13.4997 17.8095C12.7743 17.8095 12.0849 17.6299 11.4888 17.3068L10.4403 18.3553C11.3237 18.9154 12.3722 19.2458 13.4997 19.2458C16.6739 19.2458 19.2449 16.6748 19.2449 13.5005H21.3994L18.5268 10.6279ZM9.19074 13.5005C9.19074 11.1234 11.1226 9.19159 13.4997 9.19159C14.225 9.19159 14.9145 9.37113 15.5105 9.6943L16.559 8.64579C15.6757 8.08563 14.6272 7.75527 13.4997 7.75527C10.3254 7.75527 7.75443 10.3263 7.75443 13.5005H5.59996L8.47259 16.3732L11.3452 13.5005H9.19074Z" fill="#6571FF"/>
</svg>
