<svg width="24" height="24" viewBox="0 0 24 24" fill="none" xmlns="http://www.w3.org/2000/svg">
<path fill-rule="evenodd" clip-rule="evenodd" d="M8.83735 10.8981C8.22857 10.8981 7.73535 11.3913 7.73535 12.0001C7.73535 12.6089 8.22857 13.1021 8.83735 13.1021C9.44614 13.1021 9.93935 12.6089 9.93935 12.0001C9.93935 11.3915 9.44724 10.8988 8.83994 10.8981H8.83735ZM6.23535 12.0001C6.23535 10.5629 7.40014 9.39807 8.83735 9.39807H8.84035C10.2769 9.39948 11.4394 10.5648 11.4394 12.0001C11.4394 13.4373 10.2746 14.6021 8.83735 14.6021C7.40014 14.6021 6.23535 13.4373 6.23535 12.0001Z" fill="black"/>
<path fill-rule="evenodd" clip-rule="evenodd" d="M9.94238 12.0001C9.94238 11.5859 10.2782 11.2501 10.6924 11.2501H17.0104C17.4246 11.2501 17.7604 11.5859 17.7604 12.0001V13.8521C17.7604 14.2663 17.4246 14.6021 17.0104 14.6021C16.5962 14.6021 16.2604 14.2663 16.2604 13.8521V12.7501H10.6924C10.2782 12.7501 9.94238 12.4143 9.94238 12.0001Z" fill="black"/>
<path fill-rule="evenodd" clip-rule="evenodd" d="M14.1816 11.2501C14.5959 11.2501 14.9316 11.5859 14.9316 12.0001V13.8521C14.9316 14.2663 14.5959 14.6021 14.1816 14.6021C13.7674 14.6021 13.4316 14.2663 13.4316 13.8521V12.0001C13.4316 11.5859 13.7674 11.2501 14.1816 11.2501Z" fill="black"/>
<path fill-rule="evenodd" clip-rule="evenodd" d="M5.30396 5.30408C4.08098 6.52705 3.5 8.57322 3.5 12.0001C3.5 15.427 4.08098 17.4732 5.30396 18.6962C6.52693 19.9191 8.5731 20.5001 12 20.5001C15.4269 20.5001 17.4731 19.9191 18.696 18.6962C19.919 17.4732 20.5 15.427 20.5 12.0001C20.5 8.57322 19.919 6.52705 18.696 5.30408C17.4731 4.0811 15.4269 3.50012 12 3.50012C8.5731 3.50012 6.52693 4.0811 5.30396 5.30408ZM4.24329 4.24342C5.91107 2.57564 8.4899 2.00012 12 2.00012C15.5101 2.00012 18.0889 2.57564 19.7567 4.24342C21.4245 5.91119 22 8.49002 22 12.0001C22 15.5102 21.4245 18.0891 19.7567 19.7568C18.0889 21.4246 15.5101 22.0001 12 22.0001C8.4899 22.0001 5.91107 21.4246 4.24329 19.7568C2.57552 18.0891 2 15.5102 2 12.0001C2 8.49002 2.57552 5.91119 4.24329 4.24342Z" fill="black"/>
</svg>
