<svg width="24" height="24" viewBox="0 0 24 24" fill="none" xmlns="http://www.w3.org/2000/svg">
<path fill-rule="evenodd" clip-rule="evenodd" d="M11.9615 11.892H11.9925C14.8245 11.892 17.1285 9.58802 17.1285 6.75602C17.1285 3.92402 14.8245 1.61902 11.9925 1.61902C9.1595 1.61902 6.8555 3.92402 6.8555 6.75302C6.8505 8.12202 7.3795 9.41002 8.3435 10.381C9.3065 11.351 10.5915 11.888 11.9615 11.892ZM8.3555 6.75602C8.3555 4.75102 9.9875 3.11902 11.9925 3.11902C13.9975 3.11902 15.6285 4.75102 15.6285 6.75602C15.6285 8.76102 13.9975 10.392 11.9925 10.392H11.9645C10.9965 10.39 10.0895 10.01 9.4075 9.32302C8.7255 8.63702 8.3525 7.72602 8.3555 6.75602Z" fill="black"/>
<path fill-rule="evenodd" clip-rule="evenodd" d="M4.40527 18.7559C4.40527 22.3809 10.1213 22.3809 11.9993 22.3809C13.8773 22.3809 19.5943 22.3809 19.5943 18.7339C19.5943 15.9409 16.1163 13.5809 11.9993 13.5809C7.88327 13.5809 4.40527 15.9509 4.40527 18.7559ZM5.90527 18.7559C5.90527 17.0209 8.51127 15.0809 11.9993 15.0809C15.4883 15.0809 18.0943 17.0099 18.0943 18.7339C18.0943 20.1579 16.0433 20.8809 11.9993 20.8809C7.95627 20.8809 5.90527 20.1659 5.90527 18.7559Z" fill="black"/>
</svg>
