<svg width="20" height="20" viewBox="0 0 20 20" fill="none" xmlns="http://www.w3.org/2000/svg">
<path fill-rule="evenodd" clip-rule="evenodd" d="M11.2128 2.87683C7.54055 3.88792 3.71814 5.24574 2.05216 6.20738C1.65422 6.4371 1.56635 6.59036 1.55066 6.6241C1.55806 6.65 1.58705 6.7122 1.68814 6.81942C1.87344 7.01595 2.1999 7.24645 2.67027 7.49411C3.13058 7.73647 3.68441 7.97252 4.28519 8.19587C5.48648 8.64246 6.82464 9.01969 7.87097 9.28658C8.39227 9.41955 8.83725 9.52416 9.15133 9.5954C9.30831 9.63101 9.43242 9.65825 9.51682 9.67648L9.61273 9.697L9.63672 9.70204L9.64368 9.70349C9.93662 9.76411 10.1657 9.99306 10.2264 10.286L10.2279 10.2932L10.2329 10.3172L10.2534 10.4131C10.2717 10.4975 10.2989 10.6216 10.3345 10.7786C10.4057 11.0926 10.5103 11.5376 10.6433 12.0589C10.9102 13.1053 11.2874 14.4434 11.734 15.6447C11.9574 16.2455 12.1934 16.7993 12.4358 17.2596C12.6834 17.73 12.9139 18.0565 13.1105 18.2418C13.2177 18.3428 13.2799 18.3718 13.3058 18.3792C13.3395 18.3635 13.4928 18.2757 13.7225 17.8777C14.6842 16.2118 16.042 12.3893 17.0531 8.7171C17.5552 6.89343 17.9625 5.14034 18.1884 3.74909C18.3016 3.05178 18.3663 2.46341 18.3781 2.01107C18.3828 1.83074 18.3789 1.6814 18.3685 1.56143C18.2485 1.55103 18.0992 1.54706 17.9188 1.55178C17.4665 1.56362 16.8781 1.62828 16.1808 1.74151C14.7896 1.96744 13.0365 2.37472 11.2128 2.87683ZM13.3201 18.3811C13.3202 18.3816 13.3169 18.3819 13.31 18.3803C13.3165 18.3797 13.32 18.3805 13.3201 18.3811ZM8.86203 11.0679C8.84813 11.0647 8.83396 11.0615 8.81952 11.0582C8.49489 10.9846 8.03671 10.8769 7.50023 10.74C6.431 10.4673 5.03512 10.075 3.76249 9.60185C3.12631 9.36534 2.50821 9.10399 1.97145 8.82138C1.44474 8.54407 0.948986 8.22203 0.596743 7.84843C0.245697 7.47609 -0.0660265 6.93294 0.0884394 6.28372C0.231755 5.68136 0.724032 5.24207 1.30226 4.90828C3.14843 3.84263 7.13409 2.44401 10.8146 1.43064C12.6673 0.920534 14.4768 0.49858 15.9404 0.260907C16.6705 0.142343 17.3326 0.0666082 17.8796 0.0522926C18.1531 0.045134 18.4126 0.0528629 18.6455 0.082807C18.8694 0.111593 19.1172 0.166613 19.3369 0.283604C19.4685 0.353694 19.5762 0.461418 19.6463 0.59302C19.7633 0.812687 19.8183 1.06047 19.8471 1.2844C19.877 1.51733 19.8848 1.7768 19.8776 2.05031C19.8633 2.59729 19.7876 3.25941 19.669 3.98952C19.4313 5.45311 19.0094 7.26257 18.4993 9.11529C17.4859 12.7958 16.0873 16.7814 15.0216 18.6276C14.6878 19.2058 14.2485 19.6981 13.6462 19.8415C12.997 19.9959 12.4538 19.6842 12.0815 19.3332C11.7079 18.9809 11.3858 18.4852 11.1085 17.9584C10.8259 17.4217 10.5646 16.8036 10.328 16.1674C9.85493 14.8948 9.46259 13.4989 9.18985 12.4297C9.05301 11.8932 8.94529 11.435 8.87165 11.1104C8.86838 11.0959 8.86517 11.0818 8.86203 11.0679ZM1.5488 6.60982C1.54935 6.60991 1.55015 6.61337 1.54957 6.6199C1.54796 6.61299 1.54825 6.60972 1.5488 6.60982Z" fill="#6571FF"/>
</svg>
