<svg width="24" height="25" viewBox="0 0 24 25" fill="none" xmlns="http://www.w3.org/2000/svg">
<path opacity="0.4" fill-rule="evenodd" clip-rule="evenodd" d="M11.1062 13.4292C11.1192 13.4876 11.1339 13.5534 11.1503 13.6257C11.2236 13.9486 11.3308 14.4046 11.467 14.9386C11.7387 16.004 12.1286 17.3902 12.5973 18.651C12.8316 19.2812 13.0887 19.8886 13.3646 20.4127C13.637 20.93 13.9438 21.3975 14.2879 21.7219C14.6311 22.0455 15.0912 22.2955 15.6232 22.1689C16.124 22.0498 16.5173 21.6322 16.84 21.0733C17.8883 19.2572 19.2801 15.2987 20.2931 11.6196C20.8019 9.77173 21.2214 7.97166 21.4571 6.52013C21.5748 5.79548 21.6487 5.14565 21.6626 4.61445C21.674 4.17628 21.6721 3.67845 21.4605 3.28122C21.4138 3.19348 21.342 3.12167 21.2542 3.07494C20.857 2.86338 20.3592 2.86142 19.921 2.87289C19.3898 2.88679 18.74 2.96068 18.0153 3.07835C16.5638 3.31407 14.7637 3.73358 12.9159 4.24235C9.23671 5.25534 5.27828 6.64715 3.46214 7.69547C2.90324 8.0181 2.48568 8.41146 2.36653 8.91226C2.23995 9.4443 2.4899 9.90436 2.81352 10.2476C3.13794 10.5917 3.60548 10.8985 4.1228 11.1708C4.64682 11.4467 5.25421 11.7039 5.88449 11.9382C7.14523 12.4069 8.53149 12.7967 9.5969 13.0685C10.1308 13.2047 10.5868 13.3119 10.9097 13.3851C10.9821 13.4015 11.0478 13.4163 11.1062 13.4292Z" fill="#6571FF"/>
<path fill-rule="evenodd" clip-rule="evenodd" d="M18.8121 6.13862C19.105 6.43151 19.105 6.90638 18.8121 7.19928L13.2803 12.7311C12.9874 13.024 12.5126 13.024 12.2197 12.7311C11.9268 12.4382 11.9268 11.9633 12.2197 11.6704L17.7515 6.13862C18.0443 5.84572 18.5192 5.84572 18.8121 6.13862Z" fill="#6571FF"/>
</svg>
