<svg width="24" height="24" viewBox="0 0 24 24" fill="none" xmlns="http://www.w3.org/2000/svg">
<path fill-rule="evenodd" clip-rule="evenodd" d="M4.24232 4.24232C5.9101 2.57454 8.48893 1.99902 11.999 1.99902C15.5091 1.99902 18.088 2.57454 19.7557 4.24232C21.4235 5.9101 21.999 8.48893 21.999 11.999C21.999 15.5091 21.4235 18.088 19.7557 19.7557C18.088 21.4235 15.5091 21.999 11.999 21.999C8.48893 21.999 5.9101 21.4235 4.24232 19.7557C2.57454 18.088 1.99902 15.5091 1.99902 11.999C1.99902 8.48893 2.57454 5.9101 4.24232 4.24232ZM5.30298 5.30298C4.08001 6.52595 3.49902 8.57212 3.49902 11.999C3.49902 15.4259 4.08001 17.4721 5.30298 18.6951C6.52595 19.918 8.57212 20.499 11.999 20.499C15.4259 20.499 17.4721 19.918 18.6951 18.6951C19.918 17.4721 20.499 15.4259 20.499 11.999C20.499 8.57212 19.918 6.52595 18.6951 5.30298C17.4721 4.08001 15.4259 3.49902 11.999 3.49902C8.57212 3.49902 6.52595 4.08001 5.30298 5.30298Z" fill="black"/>
<path fill-rule="evenodd" clip-rule="evenodd" d="M11.998 6.88379C12.4123 6.88379 12.748 7.21958 12.748 7.63379V11.5689L15.7733 13.3737C16.129 13.5859 16.2454 14.0463 16.0331 14.402C15.8209 14.7578 15.3605 14.8741 15.0048 14.6619L11.6138 12.6389C11.387 12.5036 11.248 12.2589 11.248 11.9948V7.63379C11.248 7.21958 11.5838 6.88379 11.998 6.88379Z" fill="black"/>
</svg>
