<svg width="24" height="24" viewBox="0 0 24 24" fill="none" xmlns="http://www.w3.org/2000/svg">
<path fill-rule="evenodd" clip-rule="evenodd" d="M8.75098 11.9988C8.75098 13.7908 10.209 15.2488 12.001 15.2488C13.793 15.2488 15.251 13.7908 15.251 11.9988C15.251 10.2068 13.793 8.74878 12.001 8.74878C10.209 8.74878 8.75098 10.2068 8.75098 11.9988ZM10.251 11.9988C10.251 11.0338 11.036 10.2488 12.001 10.2488C12.966 10.2488 13.751 11.0338 13.751 11.9988C13.751 12.9638 12.966 13.7488 12.001 13.7488C11.036 13.7488 10.251 12.9638 10.251 11.9988Z" fill="black"/>
<path fill-rule="evenodd" clip-rule="evenodd" d="M8.77548 19.007C8.77548 20.795 10.2225 22.249 12.0005 22.249C13.7785 22.249 15.2255 20.795 15.2255 19.007C15.2255 18.584 15.5055 18.377 15.6265 18.307C15.7455 18.24 16.0565 18.105 16.4125 18.31C17.1575 18.744 18.0255 18.858 18.8575 18.636C19.6915 18.412 20.3885 17.874 20.8195 17.122C21.7065 15.576 21.1765 13.591 19.6395 12.697C19.2805 12.487 19.2415 12.139 19.2415 11.999C19.2415 11.859 19.2805 11.511 19.6405 11.302C21.1765 10.409 21.7055 8.42402 20.8195 6.87602C20.3875 6.12302 19.6905 5.58602 18.8565 5.36202C18.0245 5.14202 17.1575 5.25702 16.4135 5.68902C16.0575 5.89402 15.7435 5.75802 15.6265 5.69002C15.5055 5.62102 15.2255 5.41402 15.2255 4.99102C15.2255 3.20302 13.7785 1.74902 12.0005 1.74902C10.2225 1.74902 8.77548 3.20302 8.77548 4.99102C8.77548 5.41402 8.49548 5.62102 8.37448 5.69002C8.25648 5.76102 7.94348 5.89502 7.58948 5.68902C6.84448 5.25702 5.97748 5.14202 5.14448 5.36202C4.31048 5.58602 3.61348 6.12302 3.18148 6.87602C2.29548 8.42402 2.82448 10.409 4.36048 11.302C4.72048 11.511 4.75848 11.859 4.75848 11.999C4.75848 12.138 4.72048 12.487 4.36048 12.696C2.82448 13.591 2.29548 15.576 3.18148 17.122C3.61248 17.874 4.30948 18.411 5.14348 18.636C5.97448 18.858 6.84348 18.743 7.59048 18.309C7.94348 18.104 8.25648 18.24 8.37448 18.307C8.49448 18.377 8.77548 18.584 8.77548 19.007ZM9.12148 17.008C8.76548 16.803 8.37448 16.7 7.98348 16.7C7.58848 16.7 7.19448 16.804 6.83548 17.013C6.43748 17.243 5.97448 17.305 5.53248 17.186C5.08748 17.067 4.71348 16.779 4.48348 16.376C4.00448 15.543 4.28848 14.473 5.11548 13.993C5.83148 13.576 6.25848 12.83 6.25848 11.999C6.25848 11.168 5.83148 10.422 5.11448 10.005C4.28948 9.52402 4.00548 8.45602 4.48248 7.62202C4.71348 7.21902 5.08748 6.93002 5.53248 6.81102C5.97648 6.69502 6.43848 6.75602 6.83648 6.98602C7.55148 7.40202 8.40648 7.40302 9.12248 6.99102C9.84448 6.57502 10.2755 5.82802 10.2755 4.99102C10.2755 4.03002 11.0495 3.24902 12.0005 3.24902C12.9515 3.24902 13.7255 4.03002 13.7255 4.99102C13.7255 5.82702 14.1555 6.57402 14.8775 6.99002C15.5945 7.40302 16.4495 7.40002 17.1665 6.98602C17.5635 6.75602 18.0245 6.69302 18.4685 6.81102C18.9145 6.93002 19.2875 7.21902 19.5185 7.62202C19.9955 8.45602 19.7125 9.52502 18.8855 10.005C18.1695 10.422 17.7425 11.168 17.7425 11.999C17.7425 12.83 18.1695 13.576 18.8855 13.993C19.7125 14.473 19.9965 15.543 19.5185 16.376C19.2875 16.779 18.9145 17.067 18.4685 17.186C18.0255 17.305 17.5635 17.243 17.1665 17.013C16.4515 16.597 15.5955 16.596 14.8785 17.008C14.1565 17.423 13.7255 18.171 13.7255 19.007C13.7255 19.968 12.9515 20.749 12.0005 20.749C11.0495 20.749 10.2755 19.968 10.2755 19.007C10.2755 18.17 9.84448 17.423 9.12148 17.008Z" fill="black"/>
</svg>
