<svg width="24" height="24" viewBox="0 0 24 24" fill="none" xmlns="http://www.w3.org/2000/svg">
<path d="M10.7627 14.1207C10.9037 14.2617 11.0947 14.3407 11.2937 14.3407C11.4927 14.3407 11.6837 14.2617 11.8237 14.1207L15.7217 10.2217C16.0147 9.92867 16.0147 9.45367 15.7217 9.16067C15.4287 8.86767 14.9547 8.86767 14.6617 9.16067L11.2937 12.5287L9.93273 11.1657C9.63973 10.8727 9.16373 10.8727 8.87173 11.1657C8.57873 11.4577 8.57873 11.9337 8.87073 12.2267L10.7627 14.1207Z" fill="black"/>
<path fill-rule="evenodd" clip-rule="evenodd" d="M3.57899 12.7003C3.57899 19.3973 9.06399 22.1773 12.001 22.1773C14.938 22.1773 20.423 19.3973 20.423 12.7003C20.423 10.8064 20.4473 9.42966 20.4653 8.41539L20.4661 8.37061C20.512 5.83362 20.5216 5.30387 19.867 4.64927C19.035 3.81727 15.591 1.82227 12.001 1.82227C8.40999 1.82227 4.96699 3.81727 4.13699 4.64927C3.48039 5.30387 3.48998 5.83463 3.53591 8.37568L3.53669 8.41982C3.55463 9.43315 3.57899 10.809 3.57899 12.7003ZM5.19799 5.71027C5.68299 5.22327 8.73499 3.32227 12.001 3.32227C15.267 3.32227 18.32 5.22327 18.806 5.71027C18.998 5.90227 19.005 6.22027 18.967 8.34727C18.948 9.37327 18.923 10.7683 18.923 12.7003C18.923 18.7873 13.849 20.6773 12.001 20.6773C10.153 20.6773 5.07899 18.7873 5.07899 12.7003C5.07899 10.7999 5.0547 9.41737 5.03677 8.39658L5.03599 8.35227C4.99699 6.22127 5.00399 5.90227 5.19799 5.71027Z" fill="black"/>
</svg>
