<svg width="20" height="20" viewBox="0 0 20 20" fill="none" xmlns="http://www.w3.org/2000/svg">
<path opacity="0.4" fill-rule="evenodd" clip-rule="evenodd" d="M16.8087 2.97073C14.9928 1.15481 12.5756 0.153809 10.0034 0.153809C7.43125 0.153809 5.014 1.15481 3.19808 2.97073C0.35458 5.81514 -0.42092 10.1803 1.252 13.7865C1.28225 13.935 1.20066 14.5391 1.142 14.9809C0.920163 16.6364 0.806496 17.8519 1.36841 18.4147C1.92941 18.9766 3.144 18.863 4.7995 18.6402C5.24133 18.5816 5.85275 18.5027 5.94808 18.5128C7.23691 19.1096 8.61466 19.3983 9.98233 19.3983C12.4922 19.3983 14.969 18.4248 16.8087 16.5841C20.5607 12.8304 20.5616 6.72356 16.8087 2.97073Z" fill="#858C94"/>
<path d="M12.7005 10.1579C12.7005 10.6648 13.1157 11.0745 13.6217 11.0745C14.1277 11.0745 14.5384 10.6648 14.5384 10.1579C14.5384 9.65096 14.1277 9.24121 13.6217 9.24121H13.6135C13.1066 9.24121 12.7005 9.65096 12.7005 10.1579Z" fill="#858C94"/>
<path d="M9.02556 10.1579C9.02556 10.6648 9.4399 11.0745 9.94681 11.0745C10.4528 11.0745 10.8635 10.6648 10.8635 10.1579C10.8635 9.65096 10.4528 9.24121 9.94681 9.24121H9.93856C9.43256 9.24121 9.02556 9.65096 9.02556 10.1579Z" fill="#858C94"/>
<path d="M5.35156 10.1579C5.35156 10.6648 5.7659 11.0745 6.2719 11.0745C6.7779 11.0745 7.18856 10.6648 7.18856 10.1579C7.18856 9.65096 6.7779 9.24121 6.2719 9.24121H6.26365C5.75673 9.24121 5.35156 9.65096 5.35156 10.1579Z" fill="#858C94"/>
</svg>
