<svg width="20" height="20" viewBox="0 0 20 20" fill="none" xmlns="http://www.w3.org/2000/svg">
<path fill-rule="evenodd" clip-rule="evenodd" d="M2.24232 2.24232C3.9101 0.574541 6.48893 -0.000976562 9.99902 -0.000976562C13.5091 -0.000976562 16.088 0.574541 17.7557 2.24232C19.4235 3.9101 19.999 6.48893 19.999 9.99902C19.999 13.5091 19.4235 16.088 17.7557 17.7557C16.088 19.4235 13.5091 19.999 9.99902 19.999C6.48893 19.999 3.9101 19.4235 2.24232 17.7557C0.574541 16.088 -0.000976562 13.5091 -0.000976562 9.99902C-0.000976562 6.48893 0.574541 3.9101 2.24232 2.24232ZM3.30298 3.30298C2.08001 4.52595 1.49902 6.57212 1.49902 9.99902C1.49902 13.4259 2.08001 15.4721 3.30298 16.6951C4.52595 17.918 6.57212 18.499 9.99902 18.499C13.4259 18.499 15.4721 17.918 16.6951 16.6951C17.918 15.4721 18.499 13.4259 18.499 9.99902C18.499 6.57212 17.918 4.52595 16.6951 3.30298C15.4721 2.08001 13.4259 1.49902 9.99902 1.49902C6.57212 1.49902 4.52595 2.08001 3.30298 3.30298Z" fill="black"/>
<path fill-rule="evenodd" clip-rule="evenodd" d="M9.99805 4.88379C10.4123 4.88379 10.748 5.21958 10.748 5.63379V9.5689L13.7733 11.3737C14.129 11.5859 14.2454 12.0463 14.0331 12.402C13.8209 12.7578 13.3605 12.8741 13.0048 12.6619L9.6138 10.6389C9.38697 10.5036 9.24805 10.2589 9.24805 9.99479V5.63379C9.24805 5.21958 9.58383 4.88379 9.99805 4.88379Z" fill="black"/>
</svg>
