<svg width="33" height="33" viewBox="0 0 33 33" fill="none" xmlns="http://www.w3.org/2000/svg">
<g clip-path="url(#clip0_332_97664)">
<path d="M31.5127 25.9168H0.242027C-0.0663514 25.9168 -0.316406 25.6667 -0.316406 25.3583V5.2557C-0.316406 4.94732 -0.0663514 4.69727 0.242027 4.69727H31.5128C31.8212 4.69727 32.0712 4.94732 32.0712 5.2557V25.3583C32.0712 25.6667 31.8211 25.9168 31.5127 25.9168Z" fill="#41479B"/>
<path d="M32.0712 5.2557C32.0712 4.94732 31.8211 4.69727 31.5127 4.69727H29.0144L18.6694 11.4751V4.69727H13.0853V11.4751L2.7403 4.69727H0.242027C-0.0663513 4.69727 -0.316406 4.94732 -0.316406 5.2557V6.69992L8.55912 12.5149H-0.316406V18.099H8.55912L-0.316406 23.9141V25.3583C-0.316406 25.6667 -0.0663513 25.9168 0.242027 25.9168H2.74036L13.0854 19.139V25.9168H18.6695V19.139L29.0145 25.9168H31.5129C31.8213 25.9168 32.0713 25.6667 32.0713 25.3583V23.9141L23.1958 18.0991H32.0712V12.515H23.1957L32.0712 6.69992V5.2557Z" fill="#F5F5F5"/>
<path d="M32.0692 13.6318H17.5507V4.69727H14.2002V13.6318H-0.318359V16.9822H14.2002V25.9168H17.5507V16.9822H32.0692V13.6318Z" fill="#FF4B55"/>
<path d="M11.0031 18.0986L-0.300781 25.4363C-0.261246 25.7059 -0.0388973 25.9164 0.241774 25.9164H1.01092L13.0544 18.0987H11.0031V18.0986Z" fill="#FF4B55"/>
<path d="M21.5943 18.0986H19.543L31.5689 25.9048C31.8492 25.8749 32.0704 25.6461 32.0704 25.3579V24.8988L21.5943 18.0986Z" fill="#FF4B55"/>
<path d="M-0.316406 5.87236L9.91725 12.5152H11.9685L0.00892448 4.75195C-0.182112 4.8407 -0.316406 5.03142 -0.316406 5.25592V5.87236Z" fill="#FF4B55"/>
<path d="M20.7193 12.5149L32.0503 5.15961C32.0032 4.89887 31.7856 4.69727 31.5113 4.69727H30.7113L18.668 12.5149H20.7193Z" fill="#FF4B55"/>
</g>
<defs>
<clipPath id="clip0_332_97664">
<rect width="32.3877" height="31.74" fill="white" transform="translate(0 0.387695)"/>
</clipPath>
</defs>
</svg>
