<svg width="20" height="20" viewBox="0 0 20 20" fill="none" xmlns="http://www.w3.org/2000/svg">
<path d="M14.0896 8.98332C14.1786 8.85332 14.2206 8.70632 14.2206 8.56032C14.2206 8.32132 14.1066 8.08532 13.8946 7.94032C13.5526 7.70632 13.0856 7.79332 12.8516 8.13532C11.7646 9.72432 10.4176 11.2043 10.0316 11.3013C9.58464 11.2043 8.23764 9.72432 7.14764 8.13532C6.91364 7.79332 6.44764 7.70632 6.10564 7.94132C5.76464 8.17232 5.67764 8.63932 5.90964 8.98332C6.88764 10.4093 8.71764 12.7993 10.0006 12.7993C11.2846 12.7993 13.1136 10.4083 14.0896 8.98332Z" fill="black"/>
<path fill-rule="evenodd" clip-rule="evenodd" d="M10 20C17.383 20 20 17.383 20 10C20 2.617 17.383 -7.59835e-07 10 -4.37114e-07C2.617 -1.14393e-07 -7.59835e-07 2.617 -4.37114e-07 10C-1.14393e-07 17.383 2.617 20 10 20ZM10 18.5C3.486 18.5 1.5 16.514 1.5 10C1.5 3.486 3.486 1.5 10 1.5C16.514 1.5 18.5 3.486 18.5 10C18.5 16.514 16.514 18.5 10 18.5Z" fill="black"/>
</svg>
