<svg width="33" height="22" viewBox="0 0 33 22" fill="none" xmlns="http://www.w3.org/2000/svg">
<g clip-path="url(#clip0_141_56555)">
<path d="M31.8292 21.4969H0.558434C0.250055 21.4969 0 21.2468 0 20.9384V0.835777C0 0.527399 0.250055 0.277344 0.558434 0.277344H31.8293C32.1377 0.277344 32.3877 0.527399 32.3877 0.835777V20.9384C32.3876 21.2469 32.1376 21.4969 31.8292 21.4969Z" fill="#F5F5F5"/>
<path d="M32.3896 1.90969H0.00195312V0.835777C0.00195312 0.527399 0.252009 0.277344 0.560387 0.277344H31.8312C32.1396 0.277344 32.3897 0.527399 32.3897 0.835777L32.3896 1.90969Z" fill="#FF4B55"/>
<path d="M32.3896 6.80664H0.00195312V8.43893H32.3896V6.80664Z" fill="#FF4B55"/>
<path d="M32.3896 3.54102H0.00195312V5.1733H32.3896V3.54102Z" fill="#FF4B55"/>
<path d="M32.3896 11.7027H0.560387C0.252009 11.7027 0.00195312 11.4526 0.00195312 11.1442V10.0703H32.3896V11.7027Z" fill="#FF4B55"/>
<path d="M32.3896 16.6006H0.00195312V18.2329H32.3896V16.6006Z" fill="#FF4B55"/>
<path d="M31.8312 21.4965H0.560387C0.252009 21.4965 0.00195312 21.2465 0.00195312 20.9381V19.8643H32.3896V20.9382C32.3896 21.2466 32.1395 21.4965 31.8312 21.4965Z" fill="#FF4B55"/>
<path d="M32.3896 13.3359H0.00195312V14.9682H32.3896V13.3359Z" fill="#FF4B55"/>
<path d="M14.5186 0.277344H0.558434C0.250055 0.277344 0 0.527336 0 0.835714V11.1447C0 11.4531 0.250055 11.7032 0.558434 11.7032H14.5186C14.827 11.7032 15.0771 11.4531 15.0771 11.1447V0.835714C15.077 0.527336 14.827 0.277344 14.5186 0.277344Z" fill="#41479B"/>
<path d="M1.56884 1.55749L1.69245 1.92817L2.08319 1.93115C2.13379 1.93159 2.15473 1.99611 2.11406 2.02616L1.79973 2.25831L1.91764 2.63083C1.93295 2.67903 1.87798 2.71901 1.8368 2.68953L1.51893 2.46238L1.20107 2.6896C1.15989 2.71901 1.10504 2.6791 1.12022 2.6309L1.23814 2.25837L0.923811 2.02622C0.883136 1.99611 0.904074 1.93165 0.95468 1.93121L1.34542 1.92824L1.46902 1.55755C1.48496 1.50947 1.55278 1.50947 1.56884 1.55749Z" fill="#F5F5F5"/>
<path d="M1.56884 3.49689L1.69245 3.86758L2.08319 3.87055C2.13379 3.87099 2.15473 3.93552 2.11406 3.96556L1.79973 4.19772L1.91764 4.57024C1.93295 4.61844 1.87798 4.65842 1.8368 4.62894L1.51893 4.40178L1.20107 4.62901C1.15989 4.65842 1.10504 4.6185 1.12022 4.5703L1.23814 4.19778L0.923811 3.96563C0.883136 3.93552 0.904074 3.87106 0.95468 3.87062L1.34542 3.86764L1.46902 3.49695C1.48496 3.44894 1.55278 3.44894 1.56884 3.49689Z" fill="#F5F5F5"/>
<path d="M1.56884 5.43537L1.69245 5.80605L2.08319 5.80903C2.13379 5.80947 2.15473 5.87399 2.11406 5.90404L1.79973 6.13619L1.91764 6.50871C1.93295 6.55692 1.87798 6.59689 1.8368 6.56742L1.51893 6.34026L1.20107 6.56748C1.15989 6.59689 1.10504 6.55698 1.12022 6.50878L1.23814 6.13626L0.923811 5.9041C0.883136 5.87399 0.904074 5.80953 0.95468 5.80909L1.34542 5.80612L1.46902 5.43543C1.48496 5.38742 1.55278 5.38742 1.56884 5.43537Z" fill="#F5F5F5"/>
<path d="M1.56884 7.37487L1.69245 7.74555L2.08319 7.74853C2.13379 7.74897 2.15473 7.81349 2.11406 7.84354L1.79973 8.07569L1.91764 8.44822C1.93295 8.49642 1.87798 8.5364 1.8368 8.50692L1.51893 8.27976L1.20107 8.50698C1.15989 8.5364 1.10504 8.49648 1.12022 8.44828L1.23814 8.07576L0.923811 7.8436C0.883136 7.81349 0.904074 7.74903 0.95468 7.74859L1.34542 7.74562L1.46902 7.37493C1.48496 7.32686 1.55278 7.32686 1.56884 7.37487Z" fill="#F5F5F5"/>
<path d="M1.56884 9.31437L1.69245 9.68506L2.08319 9.68803C2.13379 9.68847 2.15473 9.75299 2.11406 9.78304L1.79973 10.0152L1.91764 10.3877C1.93295 10.4359 1.87798 10.4759 1.8368 10.4464L1.51893 10.2193L1.20107 10.4465C1.15989 10.4759 1.10504 10.436 1.12022 10.3878L1.23814 10.0153L0.923811 9.7831C0.883136 9.75299 0.904074 9.68853 0.95468 9.68809L1.34542 9.68512L1.46902 9.31443C1.48496 9.26629 1.55278 9.26629 1.56884 9.31437Z" fill="#F5F5F5"/>
<path d="M3.07275 2.50764L3.19635 2.87833L3.58709 2.8813C3.6377 2.88174 3.65864 2.94627 3.61796 2.97631L3.30364 3.20847L3.42155 3.58099C3.43686 3.62919 3.38189 3.66917 3.34071 3.63969L3.02284 3.41247L2.70497 3.63969C2.66379 3.66911 2.60895 3.62919 2.62413 3.58099L2.74204 3.20847L2.42772 2.97631C2.38704 2.9462 2.40798 2.88174 2.45859 2.8813L2.84933 2.87833L2.97293 2.50764C2.98881 2.45969 3.05675 2.45969 3.07275 2.50764Z" fill="#F5F5F5"/>
<path d="M3.07275 4.44714L3.19635 4.81783L3.58709 4.8208C3.6377 4.82124 3.65864 4.88577 3.61796 4.91581L3.30364 5.14797L3.42155 5.52049C3.43686 5.56869 3.38189 5.60867 3.34071 5.57919L3.02284 5.35197L2.70497 5.57919C2.66379 5.6086 2.60895 5.56875 2.62413 5.52049L2.74204 5.14797L2.42772 4.91581C2.38704 4.8857 2.40798 4.82124 2.45859 4.8208L2.84933 4.81783L2.97293 4.44714C2.98881 4.39913 3.05675 4.39913 3.07275 4.44714Z" fill="#F5F5F5"/>
<path d="M3.07275 6.3866L3.19635 6.75728L3.58709 6.76026C3.6377 6.7607 3.65864 6.82522 3.61796 6.85527L3.30364 7.08742L3.42155 7.45994C3.43686 7.50814 3.38189 7.54812 3.34071 7.51865L3.02284 7.29142L2.70497 7.51865C2.66379 7.54806 2.60895 7.50814 2.62413 7.45994L2.74204 7.08742L2.42772 6.85527C2.38704 6.82516 2.40798 6.7607 2.45859 6.76026L2.84933 6.75728L2.97293 6.3866C2.98881 6.33858 3.05675 6.33858 3.07275 6.3866Z" fill="#F5F5F5"/>
<path d="M3.07275 8.326L3.19635 8.69669L3.58709 8.69966C3.6377 8.7001 3.65864 8.76463 3.61796 8.79467L3.30364 9.02683L3.42155 9.39935C3.43686 9.44755 3.38189 9.48753 3.34071 9.45805L3.02284 9.23083L2.70497 9.45805C2.66379 9.48746 2.60895 9.44755 2.62413 9.39935L2.74204 9.02683L2.42772 8.79467C2.38704 8.76456 2.40798 8.7001 2.45859 8.69966L2.84933 8.69669L2.97293 8.326C2.98881 8.27805 3.05675 8.27805 3.07275 8.326Z" fill="#F5F5F5"/>
<path d="M4.58056 1.55749L4.70417 1.92818L5.09491 1.93115C5.14551 1.9316 5.16645 1.99612 5.12578 2.02616L4.81145 2.25832L4.92936 2.63084C4.94467 2.67904 4.8897 2.71902 4.84852 2.68954L4.53065 2.46232L4.21279 2.68954C4.1716 2.71896 4.11676 2.67904 4.13194 2.63084L4.24985 2.25832L3.93553 2.02616C3.89486 1.99605 3.91579 1.9316 3.9664 1.93115L4.35714 1.92818L4.48074 1.55749C4.49668 1.50948 4.56456 1.50948 4.58056 1.55749Z" fill="#F5F5F5"/>
<path d="M4.58056 3.4969L4.70417 3.86759L5.09491 3.87056C5.14551 3.871 5.16645 3.93552 5.12578 3.96557L4.81145 4.19772L4.92936 4.57025C4.94467 4.61845 4.8897 4.65843 4.84852 4.62895L4.53065 4.40173L4.21279 4.62895C4.1716 4.65836 4.11676 4.61845 4.13194 4.57025L4.24985 4.19772L3.93553 3.96557C3.89486 3.93546 3.91579 3.871 3.9664 3.87056L4.35714 3.86759L4.48074 3.4969C4.49668 3.44895 4.56456 3.44895 4.58056 3.4969Z" fill="#F5F5F5"/>
<path d="M4.58056 5.43538L4.70417 5.80606L5.09491 5.80904C5.14551 5.80948 5.16645 5.874 5.12578 5.90405L4.81145 6.1362L4.92936 6.50872C4.94467 6.55693 4.8897 6.59691 4.84852 6.56743L4.53065 6.34021L4.21279 6.56743C4.1716 6.59684 4.11676 6.55693 4.13194 6.50872L4.24985 6.1362L3.93553 5.90405C3.89486 5.87394 3.91579 5.80948 3.9664 5.80904L4.35714 5.80606L4.48074 5.43538C4.49668 5.38743 4.56456 5.38743 4.58056 5.43538Z" fill="#F5F5F5"/>
<path d="M4.58056 7.37488L4.70417 7.74556L5.09491 7.74854C5.14551 7.74898 5.16645 7.8135 5.12578 7.84355L4.81145 8.0757L4.92936 8.44822C4.94467 8.49642 4.8897 8.5364 4.84852 8.50693L4.53065 8.27971L4.21279 8.50693C4.1716 8.53634 4.11676 8.49642 4.13194 8.44822L4.24985 8.0757L3.93553 7.84355C3.89486 7.81344 3.91579 7.74898 3.9664 7.74854L4.35714 7.74556L4.48074 7.37488C4.49668 7.32686 4.56456 7.32686 4.58056 7.37488Z" fill="#F5F5F5"/>
<path d="M4.58056 9.31438L4.70417 9.68506L5.09491 9.68804C5.14551 9.68848 5.16645 9.753 5.12578 9.78305L4.81145 10.0152L4.92936 10.3877C4.94467 10.4359 4.8897 10.4759 4.84852 10.4464L4.53065 10.2192L4.21279 10.4464C4.1716 10.4758 4.11676 10.4359 4.13194 10.3877L4.24985 10.0152L3.93553 9.78305C3.89486 9.75294 3.91579 9.68848 3.9664 9.68804L4.35714 9.68506L4.48074 9.31438C4.49668 9.2663 4.56456 9.2663 4.58056 9.31438Z" fill="#F5F5F5"/>
<path d="M6.08447 2.50764L6.20807 2.87833L6.59881 2.8813C6.64942 2.88174 6.67036 2.94627 6.62968 2.97631L6.31536 3.20847L6.43327 3.58099C6.44858 3.62919 6.39361 3.66917 6.35243 3.63969L6.03456 3.41247L5.71669 3.63969C5.67551 3.66911 5.62067 3.62919 5.63585 3.58099L5.75376 3.20847L5.43944 2.97631C5.39876 2.9462 5.4197 2.88174 5.47031 2.8813L5.86104 2.87833L5.98465 2.50764C6.00053 2.45969 6.06846 2.45969 6.08447 2.50764Z" fill="#F5F5F5"/>
<path d="M6.08447 4.44714L6.20807 4.81783L6.59881 4.8208C6.64942 4.82124 6.67036 4.88577 6.62968 4.91581L6.31536 5.14797L6.43327 5.52049C6.44858 5.56869 6.39361 5.60867 6.35243 5.57919L6.03456 5.35197L5.71669 5.57919C5.67551 5.6086 5.62067 5.56875 5.63585 5.52049L5.75376 5.14797L5.43944 4.91581C5.39876 4.8857 5.4197 4.82124 5.47031 4.8208L5.86104 4.81783L5.98465 4.44714C6.00053 4.39913 6.06846 4.39913 6.08447 4.44714Z" fill="#F5F5F5"/>
<path d="M6.08447 6.3866L6.20807 6.75728L6.59881 6.76026C6.64942 6.7607 6.67036 6.82522 6.62968 6.85527L6.31536 7.08742L6.43327 7.45994C6.44858 7.50814 6.39361 7.54812 6.35243 7.51865L6.03456 7.29142L5.71669 7.51865C5.67551 7.54806 5.62067 7.50814 5.63585 7.45994L5.75376 7.08742L5.43944 6.85527C5.39876 6.82516 5.4197 6.7607 5.47031 6.76026L5.86104 6.75728L5.98465 6.3866C6.00053 6.33858 6.06846 6.33858 6.08447 6.3866Z" fill="#F5F5F5"/>
<path d="M6.08447 8.326L6.20807 8.69669L6.59881 8.69966C6.64942 8.7001 6.67036 8.76463 6.62968 8.79467L6.31536 9.02683L6.43327 9.39935C6.44858 9.44755 6.39361 9.48753 6.35243 9.45805L6.03456 9.23083L5.71669 9.45805C5.67551 9.48746 5.62067 9.44755 5.63585 9.39935L5.75376 9.02683L5.43944 8.79467C5.39876 8.76456 5.4197 8.7001 5.47031 8.69966L5.86104 8.69669L5.98465 8.326C6.00053 8.27805 6.06846 8.27805 6.08447 8.326Z" fill="#F5F5F5"/>
<path d="M7.58844 1.55749L7.71204 1.92818L8.10278 1.93115C8.15339 1.9316 8.17432 1.99612 8.13365 2.02616L7.81933 2.25832L7.93724 2.63084C7.95255 2.67904 7.89757 2.71902 7.85639 2.68954L7.53846 2.46232L7.2206 2.68954C7.17942 2.71896 7.12457 2.67904 7.13976 2.63084L7.25767 2.25832L6.94334 2.02616C6.90267 1.99605 6.92361 1.9316 6.97421 1.93115L7.36495 1.92818L7.48855 1.55749C7.50456 1.50948 7.57243 1.50948 7.58844 1.55749Z" fill="#F5F5F5"/>
<path d="M7.58844 3.4969L7.71204 3.86759L8.10278 3.87056C8.15339 3.871 8.17432 3.93552 8.13365 3.96557L7.81933 4.19772L7.93724 4.57025C7.95255 4.61845 7.89757 4.65843 7.85639 4.62895L7.53846 4.40173L7.2206 4.62895C7.17942 4.65836 7.12457 4.61845 7.13976 4.57025L7.25767 4.19772L6.94334 3.96557C6.90267 3.93546 6.92361 3.871 6.97421 3.87056L7.36495 3.86759L7.48855 3.4969C7.50456 3.44895 7.57243 3.44895 7.58844 3.4969Z" fill="#F5F5F5"/>
<path d="M7.58844 5.43538L7.71204 5.80606L8.10278 5.80904C8.15339 5.80948 8.17432 5.874 8.13365 5.90405L7.81933 6.1362L7.93724 6.50872C7.95255 6.55693 7.89757 6.59691 7.85639 6.56743L7.53846 6.34021L7.2206 6.56743C7.17942 6.59684 7.12457 6.55693 7.13976 6.50872L7.25767 6.1362L6.94334 5.90405C6.90267 5.87394 6.92361 5.80948 6.97421 5.80904L7.36495 5.80606L7.48855 5.43538C7.50456 5.38743 7.57243 5.38743 7.58844 5.43538Z" fill="#F5F5F5"/>
<path d="M7.58844 7.37488L7.71204 7.74556L8.10278 7.74854C8.15339 7.74898 8.17432 7.8135 8.13365 7.84355L7.81933 8.0757L7.93724 8.44822C7.95255 8.49642 7.89757 8.5364 7.85639 8.50693L7.53846 8.27971L7.2206 8.50693C7.17942 8.53634 7.12457 8.49642 7.13976 8.44822L7.25767 8.0757L6.94334 7.84355C6.90267 7.81344 6.92361 7.74898 6.97421 7.74854L7.36495 7.74556L7.48855 7.37488C7.50456 7.32686 7.57243 7.32686 7.58844 7.37488Z" fill="#F5F5F5"/>
<path d="M7.58844 9.31438L7.71204 9.68506L8.10278 9.68804C8.15339 9.68848 8.17432 9.753 8.13365 9.78305L7.81933 10.0152L7.93724 10.3877C7.95255 10.4359 7.89757 10.4759 7.85639 10.4464L7.53846 10.2192L7.2206 10.4464C7.17942 10.4758 7.12457 10.4359 7.13976 10.3877L7.25767 10.0152L6.94334 9.78305C6.90267 9.75294 6.92361 9.68848 6.97421 9.68804L7.36495 9.68506L7.48855 9.31438C7.50456 9.2663 7.57243 9.2663 7.58844 9.31438Z" fill="#F5F5F5"/>
<path d="M9.09423 2.50764L9.21784 2.87833L9.60858 2.8813C9.65918 2.88174 9.68012 2.94627 9.63945 2.97631L9.32512 3.20847L9.44303 3.58099C9.45834 3.62919 9.40337 3.66917 9.36219 3.63969L9.04432 3.41247L8.72646 3.63969C8.68528 3.66911 8.63043 3.62919 8.64561 3.58099L8.76353 3.20847L8.4492 2.97631C8.40853 2.9462 8.42947 2.88174 8.48007 2.8813L8.87081 2.87833L8.99441 2.50764C9.01042 2.45969 9.07823 2.45969 9.09423 2.50764Z" fill="#F5F5F5"/>
<path d="M9.09423 4.44714L9.21784 4.81783L9.60858 4.8208C9.65918 4.82124 9.68012 4.88577 9.63945 4.91581L9.32512 5.14797L9.44303 5.52049C9.45834 5.56869 9.40337 5.60867 9.36219 5.57919L9.04432 5.35197L8.72646 5.57919C8.68528 5.6086 8.63043 5.56875 8.64561 5.52049L8.76353 5.14797L8.4492 4.91581C8.40853 4.8857 8.42947 4.82124 8.48007 4.8208L8.87081 4.81783L8.99441 4.44714C9.01042 4.39913 9.07823 4.39913 9.09423 4.44714Z" fill="#F5F5F5"/>
<path d="M9.09423 6.3866L9.21784 6.75728L9.60858 6.76026C9.65918 6.7607 9.68012 6.82522 9.63945 6.85527L9.32512 7.08742L9.44303 7.45994C9.45834 7.50814 9.40337 7.54812 9.36219 7.51865L9.04432 7.29142L8.72646 7.51865C8.68528 7.54806 8.63043 7.50814 8.64561 7.45994L8.76353 7.08742L8.4492 6.85527C8.40853 6.82516 8.42947 6.7607 8.48007 6.76026L8.87081 6.75728L8.99441 6.3866C9.01042 6.33858 9.07823 6.33858 9.09423 6.3866Z" fill="#F5F5F5"/>
<path d="M9.09423 8.326L9.21784 8.69669L9.60858 8.69966C9.65918 8.7001 9.68012 8.76463 9.63945 8.79467L9.32512 9.02683L9.44303 9.39935C9.45834 9.44755 9.40337 9.48753 9.36219 9.45805L9.04432 9.23083L8.72646 9.45805C8.68528 9.48746 8.63043 9.44755 8.64561 9.39935L8.76353 9.02683L8.4492 8.79467C8.40853 8.76456 8.42947 8.7001 8.48007 8.69966L8.87081 8.69669L8.99441 8.326C9.01042 8.27805 9.07823 8.27805 9.09423 8.326Z" fill="#F5F5F5"/>
<path d="M10.5981 1.55749L10.7217 1.92818L11.1125 1.93115C11.1631 1.9316 11.184 1.99612 11.1434 2.02616L10.829 2.25832L10.9469 2.63084C10.9622 2.67904 10.9073 2.71902 10.8661 2.68954L10.5482 2.46232L10.2304 2.68954C10.1892 2.71896 10.1343 2.67904 10.1495 2.63084L10.2674 2.25832L9.95311 2.02616C9.91243 1.99605 9.93337 1.9316 9.98398 1.93115L10.3747 1.92818L10.4983 1.55749C10.5142 1.50948 10.5821 1.50948 10.5981 1.55749Z" fill="#F5F5F5"/>
<path d="M10.5981 3.4969L10.7217 3.86759L11.1125 3.87056C11.1631 3.871 11.184 3.93552 11.1434 3.96557L10.829 4.19772L10.9469 4.57025C10.9622 4.61845 10.9073 4.65843 10.8661 4.62895L10.5482 4.40173L10.2304 4.62895C10.1892 4.65836 10.1343 4.61845 10.1495 4.57025L10.2674 4.19772L9.95311 3.96557C9.91243 3.93546 9.93337 3.871 9.98398 3.87056L10.3747 3.86759L10.4983 3.4969C10.5142 3.44895 10.5821 3.44895 10.5981 3.4969Z" fill="#F5F5F5"/>
<path d="M10.5981 5.43538L10.7217 5.80606L11.1125 5.80904C11.1631 5.80948 11.184 5.874 11.1434 5.90405L10.829 6.1362L10.9469 6.50872C10.9622 6.55693 10.9073 6.59691 10.8661 6.56743L10.5482 6.34021L10.2304 6.56743C10.1892 6.59684 10.1343 6.55693 10.1495 6.50872L10.2674 6.1362L9.95311 5.90405C9.91243 5.87394 9.93337 5.80948 9.98398 5.80904L10.3747 5.80606L10.4983 5.43538C10.5142 5.38743 10.5821 5.38743 10.5981 5.43538Z" fill="#F5F5F5"/>
<path d="M10.5981 7.37488L10.7217 7.74556L11.1125 7.74854C11.1631 7.74898 11.184 7.8135 11.1434 7.84355L10.829 8.0757L10.9469 8.44822C10.9622 8.49642 10.9073 8.5364 10.8661 8.50693L10.5482 8.27971L10.2304 8.50693C10.1892 8.53634 10.1343 8.49642 10.1495 8.44822L10.2674 8.0757L9.95311 7.84355C9.91243 7.81344 9.93337 7.74898 9.98398 7.74854L10.3747 7.74556L10.4983 7.37488C10.5142 7.32686 10.5821 7.32686 10.5981 7.37488Z" fill="#F5F5F5"/>
<path d="M10.5981 9.31438L10.7217 9.68506L11.1125 9.68804C11.1631 9.68848 11.184 9.753 11.1434 9.78305L10.829 10.0152L10.9469 10.3877C10.9622 10.4359 10.9073 10.4759 10.8661 10.4464L10.5482 10.2192L10.2304 10.4464C10.1892 10.4758 10.1343 10.4359 10.1495 10.3877L10.2674 10.0152L9.95311 9.78305C9.91243 9.75294 9.93337 9.68848 9.98398 9.68804L10.3747 9.68506L10.4983 9.31438C10.5142 9.2663 10.5821 9.2663 10.5981 9.31438Z" fill="#F5F5F5"/>
<path d="M12.104 2.50764L12.2276 2.87833L12.6183 2.8813C12.6689 2.88174 12.6899 2.94627 12.6492 2.97631L12.3349 3.20847L12.4528 3.58099C12.4681 3.62919 12.4131 3.66917 12.372 3.63969L12.0541 3.41247L11.7362 3.63969C11.695 3.66911 11.6402 3.62919 11.6554 3.58099L11.7733 3.20847L11.459 2.97631C11.4183 2.9462 11.4392 2.88174 11.4898 2.8813L11.8806 2.87833L12.0042 2.50764C12.0201 2.45969 12.0881 2.45969 12.104 2.50764Z" fill="#F5F5F5"/>
<path d="M12.104 4.44714L12.2276 4.81783L12.6183 4.8208C12.6689 4.82124 12.6899 4.88577 12.6492 4.91581L12.3349 5.14797L12.4528 5.52049C12.4681 5.56869 12.4131 5.60867 12.372 5.57919L12.0541 5.35197L11.7362 5.57919C11.695 5.6086 11.6402 5.56875 11.6554 5.52049L11.7733 5.14797L11.459 4.91581C11.4183 4.8857 11.4392 4.82124 11.4898 4.8208L11.8806 4.81783L12.0042 4.44714C12.0201 4.39913 12.0881 4.39913 12.104 4.44714Z" fill="#F5F5F5"/>
<path d="M12.104 6.3866L12.2276 6.75728L12.6183 6.76026C12.6689 6.7607 12.6899 6.82522 12.6492 6.85527L12.3349 7.08742L12.4528 7.45994C12.4681 7.50814 12.4131 7.54812 12.372 7.51865L12.0541 7.29142L11.7362 7.51865C11.695 7.54806 11.6402 7.50814 11.6554 7.45994L11.7733 7.08742L11.459 6.85527C11.4183 6.82516 11.4392 6.7607 11.4898 6.76026L11.8806 6.75728L12.0042 6.3866C12.0201 6.33858 12.0881 6.33858 12.104 6.3866Z" fill="#F5F5F5"/>
<path d="M12.104 8.326L12.2276 8.69669L12.6183 8.69966C12.6689 8.7001 12.6899 8.76463 12.6492 8.79467L12.3349 9.02683L12.4528 9.39935C12.4681 9.44755 12.4131 9.48753 12.372 9.45805L12.0541 9.23083L11.7362 9.45805C11.695 9.48746 11.6402 9.44755 11.6554 9.39935L11.7733 9.02683L11.459 8.79467C11.4183 8.76456 11.4392 8.7001 11.4898 8.69966L11.8806 8.69669L12.0042 8.326C12.0201 8.27805 12.0881 8.27805 12.104 8.326Z" fill="#F5F5F5"/>
<path d="M13.6099 1.55749L13.7335 1.92818L14.1242 1.93115C14.1748 1.9316 14.1957 1.99612 14.1551 2.02616L13.8407 2.25832L13.9587 2.63084C13.974 2.67904 13.919 2.71902 13.8778 2.68954L13.5599 2.46232L13.2421 2.68954C13.2009 2.71896 13.1461 2.67904 13.1612 2.63084L13.2792 2.25832L12.9648 2.02616C12.9242 1.99605 12.9451 1.9316 12.9957 1.93115L13.3864 1.92818L13.51 1.55749C13.526 1.50948 13.5938 1.50948 13.6099 1.55749Z" fill="#F5F5F5"/>
<path d="M13.6099 3.4969L13.7335 3.86759L14.1242 3.87056C14.1748 3.871 14.1957 3.93552 14.1551 3.96557L13.8407 4.19772L13.9587 4.57025C13.974 4.61845 13.919 4.65843 13.8778 4.62895L13.5599 4.40173L13.2421 4.62895C13.2009 4.65836 13.1461 4.61845 13.1612 4.57025L13.2792 4.19772L12.9648 3.96557C12.9242 3.93546 12.9451 3.871 12.9957 3.87056L13.3864 3.86759L13.51 3.4969C13.526 3.44895 13.5938 3.44895 13.6099 3.4969Z" fill="#F5F5F5"/>
<path d="M13.6099 5.43538L13.7335 5.80606L14.1242 5.80904C14.1748 5.80948 14.1957 5.874 14.1551 5.90405L13.8407 6.1362L13.9587 6.50872C13.974 6.55693 13.919 6.59691 13.8778 6.56743L13.5599 6.34021L13.2421 6.56743C13.2009 6.59684 13.1461 6.55693 13.1612 6.50872L13.2792 6.1362L12.9648 5.90405C12.9242 5.87394 12.9451 5.80948 12.9957 5.80904L13.3864 5.80606L13.51 5.43538C13.526 5.38743 13.5938 5.38743 13.6099 5.43538Z" fill="#F5F5F5"/>
<path d="M13.6099 7.37488L13.7335 7.74556L14.1242 7.74854C14.1748 7.74898 14.1957 7.8135 14.1551 7.84355L13.8407 8.0757L13.9587 8.44822C13.974 8.49642 13.919 8.5364 13.8778 8.50693L13.5599 8.27971L13.2421 8.50693C13.2009 8.53634 13.1461 8.49642 13.1612 8.44822L13.2792 8.0757L12.9648 7.84355C12.9242 7.81344 12.9451 7.74898 12.9957 7.74854L13.3864 7.74556L13.51 7.37488C13.526 7.32686 13.5938 7.32686 13.6099 7.37488Z" fill="#F5F5F5"/>
<path d="M13.6099 9.31438L13.7335 9.68506L14.1242 9.68804C14.1748 9.68848 14.1957 9.753 14.1551 9.78305L13.8407 10.0152L13.9587 10.3877C13.974 10.4359 13.919 10.4759 13.8778 10.4464L13.5599 10.2192L13.2421 10.4464C13.2009 10.4758 13.1461 10.4359 13.1612 10.3877L13.2792 10.0152L12.9648 9.78305C12.9242 9.75294 12.9451 9.68848 12.9957 9.68804L13.3864 9.68506L13.51 9.31438C13.526 9.2663 13.5938 9.2663 13.6099 9.31438Z" fill="#F5F5F5"/>
</g>
<defs>
<clipPath id="clip0_141_56555">
<rect width="32.3877" height="21.3759" fill="white" transform="translate(0 0.3125)"/>
</clipPath>
</defs>
</svg>
