<svg width="54" height="38" viewBox="0 0 54 38" fill="none" xmlns="http://www.w3.org/2000/svg">
<rect x="1.1314" y="1.33453" width="52.08" height="35.8773" rx="6.36533" fill="white"/>
<rect x="1.1314" y="1.33453" width="52.08" height="35.8773" rx="6.36533" stroke="#F2F4F7" stroke-width="1.15733"/>
<path fill-rule="evenodd" clip-rule="evenodd" d="M17.1428 25.227H13.9644L11.581 15.8666C11.4679 15.4361 11.2277 15.0554 10.8744 14.876C9.99258 14.4252 9.02092 14.0663 7.96094 13.8854V13.525H13.0811C13.7878 13.525 14.3178 14.0663 14.4061 14.695L15.6427 21.447L18.8196 13.525H21.9097L17.1428 25.227ZM23.6764 25.227H20.6747L23.1464 13.525H26.1481L23.6764 25.227ZM30.0317 16.7666C30.12 16.1363 30.65 15.7759 31.2683 15.7759C32.24 15.6854 33.2984 15.8664 34.1818 16.3157L34.7117 13.7962C33.8284 13.4358 32.8568 13.2549 31.975 13.2549C29.0616 13.2549 26.9416 14.8758 26.9416 17.1254C26.9416 18.8368 28.4433 19.7353 29.5032 20.2767C30.65 20.8165 31.0917 21.1768 31.0033 21.7166C31.0033 22.5263 30.12 22.8867 29.2383 22.8867C28.1783 22.8867 27.1183 22.6168 26.1482 22.1659L25.6182 24.687C26.6782 25.1362 27.8249 25.3172 28.8849 25.3172C32.1517 25.4061 34.1818 23.7868 34.1818 21.3562C34.1818 18.2954 30.0317 18.116 30.0317 16.7666V16.7666ZM44.6873 25.227L42.3039 13.525H39.7438C39.2138 13.525 38.6838 13.8854 38.5071 14.4252L34.0936 25.227H37.1837L37.8005 23.5171H41.5972L41.9505 25.227H44.6873ZM40.1852 16.676L41.067 21.0863H38.5952L40.1852 16.676Z" fill="#172B85"/>
</svg>
