<svg width="24" height="25" viewBox="0 0 24 25" fill="none" xmlns="http://www.w3.org/2000/svg">
<path fill-rule="evenodd" clip-rule="evenodd" d="M19.1342 13.3389H4.86621C4.45221 13.3389 4.11621 13.6749 4.11621 14.0889C4.11621 14.5029 4.45221 14.8389 4.86621 14.8389H5.88121C6.22321 17.6409 8.44821 19.8659 11.2502 20.2079V21.9109C11.2502 22.3249 11.5862 22.6609 12.0002 22.6609C12.4142 22.6609 12.7502 22.3249 12.7502 21.9109V20.2079C15.5532 19.8659 17.7772 17.6409 18.1192 14.8389H19.1342C19.5482 14.8389 19.8842 14.5029 19.8842 14.0889C19.8842 13.6749 19.5482 13.3389 19.1342 13.3389Z" fill="#6571FF"/>
<path opacity="0.4" fill-rule="evenodd" clip-rule="evenodd" d="M6.33008 11.3341H17.6691C17.9461 11.3341 18.1691 11.1101 18.1691 10.8341V8.58013C18.1691 5.17913 15.4021 2.41113 11.9991 2.41113C8.59808 2.41113 5.83008 5.17913 5.83008 8.58013V10.8341C5.83008 11.1101 6.05408 11.3341 6.33008 11.3341Z" fill="#6571FF"/>
</svg>
