<svg width="24" height="24" viewBox="0 0 24 24" fill="none" xmlns="http://www.w3.org/2000/svg">
<path fill-rule="evenodd" clip-rule="evenodd" d="M9.4913 4.86127C9.4913 4.01227 10.0793 3.32227 10.8013 3.32227H13.2013C13.9233 3.32227 14.5113 4.01227 14.5113 4.86127V4.88527C13.7453 4.80827 12.9113 4.77027 12.0013 4.77027C11.0903 4.77027 10.2563 4.80827 9.4913 4.88527V4.86127ZM2.5073 10.7803C5.1163 12.3883 8.4963 13.2753 12.0213 13.2783C15.5393 13.2753 18.9103 12.3913 21.5173 10.7903C20.9893 7.52727 19.3243 5.79127 16.0113 5.11627V4.86127C16.0113 3.18527 14.7503 1.82227 13.2013 1.82227H10.8013C9.25231 1.82227 7.9913 3.18527 7.9913 4.86127V5.11627C4.6833 5.79027 3.0193 7.52127 2.4873 10.7723C2.4943 10.7763 2.5013 10.7763 2.5073 10.7803Z" fill="#FF7F50"/>
<path opacity="0.4" fill-rule="evenodd" clip-rule="evenodd" d="M12.751 14.8164V16.9794C12.751 17.3934 12.415 17.7294 12.001 17.7294C11.587 17.7294 11.251 17.3934 11.251 16.9794V14.8154C7.99002 14.7064 4.87202 13.8924 2.31502 12.4834C2.30002 12.8024 2.29102 13.1304 2.29102 13.4724C2.29102 19.8984 4.83202 22.1754 12.001 22.1754C19.17 22.1754 21.711 19.8984 21.711 13.4724C21.711 13.1384 21.703 12.8174 21.689 12.5064C19.128 13.9074 16.01 14.7134 12.751 14.8164Z" fill="#FF7F50"/>
</svg>
